<svg width="16" height="16" viewBox="0 0 16 16" fill="none" xmlns="http://www.w3.org/2000/svg">
<path fill-rule="evenodd" clip-rule="evenodd" d="M8.89459 3.46361C8.49514 2.80995 7.53918 2.82977 7.16715 3.49942L2.15885 12.5144C1.78856 13.1809 2.27053 14 3.03301 14H13.5504C14.3314 14 14.8109 13.1449 14.4037 12.4785L8.89459 3.46361Z" fill="#ECB800"/>
<path d="M7.3335 6.66667C7.3335 6.29848 7.63197 6 8.00016 6C8.36835 6 8.66683 6.29848 8.66683 6.66667V10C8.66683 10.3682 8.36835 10.6667 8.00016 10.6667C7.63197 10.6667 7.3335 10.3682 7.3335 10V6.66667Z" fill="white"/>
<path d="M7.3335 12C7.3335 11.6318 7.63197 11.3333 8.00016 11.3333C8.36835 11.3333 8.66683 11.6318 8.66683 12C8.66683 12.3682 8.36835 12.6667 8.00016 12.6667C7.63197 12.6667 7.3335 12.3682 7.3335 12Z" fill="white"/>
</svg>
