<?xml version="1.0" encoding="utf-8"?>
<!-- Generator: Adobe Illustrator 22.1.0, SVG Export Plug-In . SVG Version: 6.00 Build 0)  -->
<svg version="1.1" id="Layer_1" xmlns="http://www.w3.org/2000/svg" xmlns:xlink="http://www.w3.org/1999/xlink" x="0px" y="0px"
	 viewBox="0 0 210 60" style="enable-background:new 0 0 210 60;" xml:space="preserve">
<style type="text/css">
	.st0{fill:#F2F2FA;}
	.st1{fill:#141414;}
</style>
<g>
	<path class="st0" d="M10,0h190c5.5,0,10,4.5,10,10v40c0,5.5-4.5,10-10,10H10C4.5,60,0,55.5,0,50V10C0,4.5,4.5,0,10,0z"/>
</g>
<path class="st1" d="M71,23v-8.5h2.4c0.7,0,1.4,0.2,2,0.5c0.6,0.3,1,0.8,1.3,1.4c0.3,0.6,0.5,1.3,0.5,2.1V19c0,0.8-0.2,1.5-0.5,2.1
	c-0.3,0.6-0.8,1.1-1.3,1.4c-0.6,0.3-1.2,0.5-2,0.5H71z M72.1,15.4v6.7h1.2c0.9,0,1.5-0.3,2-0.8C75.8,20.7,76,20,76,19v-0.5
	c0-1-0.2-1.7-0.7-2.3c-0.5-0.5-1.1-0.8-1.9-0.8H72.1z M78.4,19.8c0-0.6,0.1-1.2,0.4-1.7c0.2-0.5,0.6-0.9,1-1.1
	c0.4-0.3,0.9-0.4,1.5-0.4c0.9,0,1.6,0.3,2.1,0.9c0.5,0.6,0.8,1.4,0.8,2.4v0.1c0,0.6-0.1,1.2-0.4,1.7c-0.2,0.5-0.6,0.9-1,1.1
	c-0.4,0.3-0.9,0.4-1.5,0.4c-0.9,0-1.6-0.3-2.1-0.9C78.7,21.6,78.4,20.8,78.4,19.8L78.4,19.8z M79.5,19.9c0,0.7,0.2,1.3,0.5,1.7
	c0.3,0.4,0.8,0.6,1.3,0.6c0.6,0,1-0.2,1.3-0.6c0.3-0.4,0.5-1,0.5-1.8c0-0.7-0.2-1.3-0.5-1.7c-0.3-0.4-0.8-0.7-1.3-0.7
	c-0.5,0-1,0.2-1.3,0.6C79.7,18.5,79.5,19.1,79.5,19.9z M91.2,21.5l1.2-4.8h1.1L91.6,23h-0.9l-1.5-4.8L87.7,23h-0.9L85,16.7H86
	l1.2,4.7l1.5-4.7h0.9L91.2,21.5z M95.6,16.7l0,0.8c0.5-0.6,1.1-0.9,1.9-0.9c1.3,0,2,0.8,2,2.3V23h-1.1v-4.2c0-0.5-0.1-0.8-0.3-1
	c-0.2-0.2-0.5-0.3-1-0.3c-0.4,0-0.7,0.1-0.9,0.3c-0.3,0.2-0.5,0.4-0.6,0.7V23h-1.1v-6.3H95.6z M102.4,23h-1.1v-9h1.1V23z
	 M103.8,19.8c0-0.6,0.1-1.2,0.4-1.7c0.2-0.5,0.6-0.9,1-1.1c0.4-0.3,0.9-0.4,1.5-0.4c0.9,0,1.6,0.3,2.1,0.9c0.5,0.6,0.8,1.4,0.8,2.4
	v0.1c0,0.6-0.1,1.2-0.4,1.7c-0.2,0.5-0.6,0.9-1,1.1c-0.4,0.3-0.9,0.4-1.5,0.4c-0.9,0-1.6-0.3-2.1-0.9
	C104.1,21.6,103.8,20.8,103.8,19.8L103.8,19.8z M104.9,19.9c0,0.7,0.2,1.3,0.5,1.7c0.3,0.4,0.8,0.6,1.3,0.6c0.6,0,1-0.2,1.3-0.6
	c0.3-0.4,0.5-1,0.5-1.8c0-0.7-0.2-1.3-0.5-1.7c-0.3-0.4-0.8-0.7-1.3-0.7c-0.5,0-1,0.2-1.3,0.6C105.1,18.5,104.9,19.1,104.9,19.9z
	 M114.9,23c-0.1-0.1-0.1-0.3-0.2-0.7c-0.5,0.5-1.1,0.8-1.8,0.8c-0.6,0-1.1-0.2-1.5-0.5c-0.4-0.4-0.6-0.8-0.6-1.3
	c0-0.7,0.2-1.2,0.8-1.5c0.5-0.4,1.2-0.6,2.1-0.6h1.1v-0.5c0-0.4-0.1-0.7-0.3-0.9c-0.2-0.2-0.6-0.3-1-0.3c-0.4,0-0.7,0.1-1,0.3
	s-0.4,0.4-0.4,0.7h-1.1c0-0.3,0.1-0.6,0.3-0.9c0.2-0.3,0.5-0.5,0.9-0.7c0.4-0.2,0.8-0.3,1.3-0.3c0.7,0,1.3,0.2,1.7,0.6
	c0.4,0.4,0.6,0.9,0.6,1.5v2.9c0,0.6,0.1,1,0.2,1.4V23H114.9z M113.1,22.2c0.3,0,0.7-0.1,1-0.3c0.3-0.2,0.5-0.4,0.7-0.7v-1.3h-0.8
	c-1.3,0-2,0.4-2,1.2c0,0.3,0.1,0.6,0.3,0.8C112.4,22.1,112.7,22.2,113.1,22.2z M117.2,19.8c0-1,0.2-1.8,0.7-2.3
	c0.5-0.6,1.1-0.9,1.8-0.9c0.7,0,1.3,0.3,1.8,0.8V14h1.1v9h-1l-0.1-0.7c-0.4,0.5-1,0.8-1.8,0.8c-0.7,0-1.3-0.3-1.8-0.9
	C117.4,21.6,117.2,20.8,117.2,19.8L117.2,19.8z M118.3,19.9c0,0.7,0.1,1.3,0.4,1.7c0.3,0.4,0.7,0.6,1.2,0.6c0.7,0,1.2-0.3,1.5-0.9
	v-2.9c-0.3-0.6-0.8-0.9-1.5-0.9c-0.5,0-0.9,0.2-1.2,0.6C118.4,18.5,118.3,19.1,118.3,19.9z M128.4,23h-1.1v-6.3h1.1V23z M127.2,15
	c0-0.2,0.1-0.3,0.2-0.4c0.1-0.1,0.3-0.2,0.5-0.2s0.4,0.1,0.5,0.2c0.1,0.1,0.2,0.3,0.2,0.4s-0.1,0.3-0.2,0.4
	c-0.1,0.1-0.3,0.2-0.5,0.2s-0.4-0.1-0.5-0.2C127.3,15.3,127.2,15.2,127.2,15z M131.2,16.7l0,0.8c0.5-0.6,1.1-0.9,1.9-0.9
	c1.3,0,2,0.8,2,2.3V23H134v-4.2c0-0.5-0.1-0.8-0.3-1c-0.2-0.2-0.5-0.3-1-0.3c-0.4,0-0.7,0.1-0.9,0.3c-0.3,0.2-0.5,0.4-0.6,0.7V23
	h-1.1v-6.3H131.2z M79.3,44.1h-5.1l-1,2.9h-3.1l5.3-14.2h2.7L83.4,47h-3.1L79.3,44.1z M75,41.7h3.6l-1.8-5.3L75,41.7z M93.6,41.8
	c0,1.6-0.4,2.9-1.1,3.9c-0.7,1-1.7,1.5-3,1.5c-1.1,0-1.9-0.4-2.6-1.1v5h-2.8V36.4h2.6l0.1,1c0.7-0.8,1.6-1.2,2.7-1.2
	c1.3,0,2.3,0.5,3,1.4s1.1,2.3,1.1,4V41.8z M90.8,41.6c0-1-0.2-1.7-0.5-2.3c-0.3-0.5-0.8-0.8-1.5-0.8c-0.9,0-1.5,0.3-1.8,1v4.3
	c0.3,0.7,1,1,1.8,1C90.1,44.9,90.8,43.8,90.8,41.6z M104.9,41.8c0,1.6-0.4,2.9-1.1,3.9c-0.7,1-1.7,1.5-3,1.5c-1.1,0-1.9-0.4-2.6-1.1
	v5h-2.8V36.4H98l0.1,1c0.7-0.8,1.6-1.2,2.7-1.2c1.3,0,2.3,0.5,3,1.4c0.7,1,1.1,2.3,1.1,4V41.8z M102,41.6c0-1-0.2-1.7-0.5-2.3
	c-0.3-0.5-0.8-0.8-1.5-0.8c-0.9,0-1.5,0.3-1.8,1v4.3c0.3,0.7,1,1,1.8,1C101.4,44.9,102,43.8,102,41.6z M119.1,43.3
	c0-0.6-0.2-1-0.6-1.3c-0.4-0.3-1.1-0.6-2.1-0.9c-1-0.3-1.8-0.7-2.4-1c-1.6-0.9-2.4-2-2.4-3.5c0-0.8,0.2-1.5,0.6-2.1
	c0.4-0.6,1.1-1.1,1.9-1.4c0.8-0.3,1.7-0.5,2.7-0.5c1,0,1.9,0.2,2.7,0.6c0.8,0.4,1.4,0.9,1.8,1.6c0.4,0.7,0.7,1.4,0.7,2.3h-2.9
	c0-0.7-0.2-1.2-0.6-1.5c-0.4-0.4-1-0.5-1.7-0.5c-0.7,0-1.3,0.2-1.7,0.5c-0.4,0.3-0.6,0.7-0.6,1.2c0,0.5,0.2,0.8,0.7,1.2
	c0.5,0.3,1.2,0.6,2.1,0.9c1.7,0.5,2.9,1.1,3.6,1.9c0.8,0.7,1.1,1.7,1.1,2.8c0,1.2-0.5,2.2-1.4,2.9c-0.9,0.7-2.2,1-3.8,1
	c-1.1,0-2.1-0.2-3-0.6c-0.9-0.4-1.6-1-2.1-1.7c-0.5-0.7-0.7-1.5-0.7-2.4h2.9c0,1.6,0.9,2.4,2.8,2.4c0.7,0,1.2-0.1,1.6-0.4
	C119,44.2,119.1,43.8,119.1,43.3z M127.3,33.8v2.6h1.8v2.1h-1.8v5.3c0,0.4,0.1,0.7,0.2,0.8c0.1,0.2,0.4,0.3,0.9,0.3
	c0.3,0,0.6,0,0.8-0.1v2.1c-0.6,0.2-1.1,0.3-1.7,0.3c-2,0-3-1-3-3v-5.7h-1.5v-2.1h1.5v-2.6H127.3z M129.9,41.6c0-1,0.2-2,0.6-2.8
	c0.4-0.8,1-1.5,1.7-1.9c0.8-0.4,1.6-0.7,2.6-0.7c1.4,0,2.6,0.4,3.5,1.3c0.9,0.9,1.4,2.1,1.5,3.6l0,0.7c0,1.6-0.5,2.9-1.4,3.9
	c-0.9,1-2.1,1.5-3.6,1.5c-1.5,0-2.7-0.5-3.7-1.5c-0.9-1-1.4-2.3-1.4-4V41.6z M132.7,41.8c0,1,0.2,1.8,0.6,2.3
	c0.4,0.5,0.9,0.8,1.6,0.8c0.7,0,1.2-0.3,1.6-0.8c0.4-0.5,0.6-1.4,0.6-2.5c0-1-0.2-1.7-0.6-2.3c-0.4-0.5-0.9-0.8-1.6-0.8
	c-0.7,0-1.2,0.3-1.6,0.8C132.9,39.9,132.7,40.7,132.7,41.8z M147.6,39.1c-0.4-0.1-0.7-0.1-1-0.1c-1.1,0-1.8,0.4-2.1,1.1V47h-2.8
	V36.4h2.7l0.1,1.3c0.6-1,1.4-1.5,2.4-1.5c0.3,0,0.6,0,0.9,0.1L147.6,39.1z M153.6,47.2c-1.6,0-2.8-0.5-3.8-1.4c-1-1-1.5-2.2-1.5-3.8
	v-0.3c0-1.1,0.2-2,0.6-2.8c0.4-0.8,1-1.5,1.7-1.9c0.8-0.5,1.6-0.7,2.6-0.7c1.4,0,2.6,0.5,3.4,1.4c0.8,0.9,1.2,2.2,1.2,3.9v1.2h-6.7
	c0.1,0.7,0.4,1.2,0.8,1.7c0.5,0.4,1,0.6,1.7,0.6c1.1,0,1.9-0.4,2.5-1.2l1.4,1.6c-0.4,0.6-1,1.1-1.7,1.4
	C155.3,47,154.5,47.2,153.6,47.2z M153.3,38.5c-0.6,0-1,0.2-1.4,0.6c-0.3,0.4-0.6,0.9-0.7,1.6h3.9v-0.2c0-0.6-0.2-1.1-0.5-1.4
	C154.4,38.7,153.9,38.5,153.3,38.5z"/>
<path class="st1" d="M50.8,15H33.2c-3.4,0-6.2,2.8-6.2,6.2v17.7c0,3.4,2.8,6.2,6.2,6.2h17.7c3.4,0,6.2-2.8,6.2-6.2V21.2
	C57,17.8,54.2,15,50.8,15z M55.2,38.8c0,2.4-2,4.4-4.4,4.4H33.2c-2.4,0-4.4-2-4.4-4.4V21.2c0-2.4,2-4.4,4.4-4.4h17.7
	c2.4,0,4.4,2,4.4,4.4V38.8z"/>
<path class="st1" d="M44.9,22.2c-0.1-0.4-0.3-0.7-0.7-0.9c-0.7-0.4-1.6-0.2-2,0.5L42,22.3l-0.2-0.4c-0.4-0.7-1.3-0.9-2-0.5h0
	c-0.7,0.4-0.9,1.3-0.5,2l1.1,1.9l-4,6.8h-2.9c-0.8,0-1.5,0.7-1.5,1.5s0.7,1.5,1.5,1.5h11.1l-1.7-2.9h-3.2l5-8.7
	C45,23,45,22.6,44.9,22.2z"/>
<path class="st1" d="M50.5,32.1h-2.9l-3.3-5.7l-1.7,2.9l5.1,8.8c0.2,0.3,0.5,0.6,0.9,0.7c0.1,0,0.3,0.1,0.4,0.1
	c0.3,0,0.5-0.1,0.7-0.2c0.7-0.4,0.9-1.3,0.5-2l-1-1.7h1.2c0.8,0,1.5-0.7,1.5-1.5S51.3,32.1,50.5,32.1z"/>
<path class="st1" d="M34,36.2l-0.3,0.5c-0.4,0.7-0.2,1.6,0.5,2c0.2,0.1,0.5,0.2,0.7,0.2c0.5,0,1-0.3,1.3-0.7l1.1-2H34z"/>
</svg>
