<svg width="24" height="24" viewBox="0 0 24 24" fill="none" xmlns="http://www.w3.org/2000/svg">
<path opacity="0.3" d="M20 0H4C1.79086 0 0 1.79086 0 4V20C0 22.2091 1.79086 24 4 24H20C22.2091 24 24 22.2091 24 20V4C24 1.79086 22.2091 0 20 0Z" fill="#0015FF"/>
<path fill-rule="evenodd" clip-rule="evenodd" d="M11.1997 19.0093C11.1997 19.3061 11.5845 19.4225 11.7493 19.1757L17.2889 10.8665C17.3191 10.8213 17.3363 10.7688 17.339 10.7146C17.3416 10.6603 17.3294 10.6064 17.3038 10.5585C17.2782 10.5107 17.2401 10.4706 17.1935 10.4427C17.1469 10.4148 17.0936 10.4001 17.0393 10.4001H12.7997V4.99089C12.7997 4.69409 12.4149 4.57769 12.2501 4.82449L6.71054 13.1337C6.68042 13.1789 6.66313 13.2314 6.66051 13.2856C6.65789 13.3398 6.67003 13.3938 6.69565 13.4416C6.72127 13.4895 6.7594 13.5295 6.80598 13.5574C6.85256 13.5854 6.90584 13.6001 6.96013 13.6001H11.1997V19.0093Z" fill="#3439D5"/>
</svg>
