<svg width="24" height="24" viewBox="0 0 24 24" fill="none" xmlns="http://www.w3.org/2000/svg">
<path fill-rule="evenodd" clip-rule="evenodd" d="M15.3989 19.9928C14.7688 19.9473 14.1918 19.6898 13.7416 19.2896L13.704 19.3297L13.6783 19.356C13.3856 19.6504 12.8568 20 12 20C11.1425 20 10.6136 19.6504 10.3208 19.356C10.2976 19.3328 10.276 19.3096 10.2544 19.2864C9.75757 19.7328 9.10559 20 8.40002 20C6.85596 20 5.59998 18.744 5.59998 17.2V15.6952L4.44165 15.116C4.17041 14.98 4 14.7032 4 14.4V12C4 7.58881 7.58801 4 12 4C16.4113 4 20 7.58881 20 12V14.4C20 14.7032 19.8289 14.98 19.5576 15.116L18.475 15.6577C16.6856 16.2861 15.402 17.9893 15.3989 19.9928ZM8.79956 12.8001C7.91711 12.8001 7.19959 12.0825 7.19959 11.2001C7.19959 10.3185 7.91711 9.60007 8.79956 9.60007C9.68189 9.60007 10.3995 10.3185 10.3995 11.2001C10.3995 12.0825 9.68189 12.8001 8.79956 12.8001ZM13.5996 11.2001C13.5996 12.0825 14.3173 12.8001 15.1996 12.8001C16.082 12.8001 16.7996 12.0825 16.7996 11.2001C16.7996 10.3185 16.082 9.60007 15.1996 9.60007C14.3173 9.60007 13.5996 10.3185 13.5996 11.2001ZM11.9996 12.8001L10.3995 15.2001H13.5996L11.9996 12.8001Z" fill="#3D50DF"/>
<path d="M10.4066 11.2004C10.4066 12.0847 9.68968 12.8016 8.80534 12.8016C7.921 12.8016 7.2041 12.0847 7.2041 11.2004C7.2041 10.316 7.921 9.59912 8.80534 9.59912C9.68968 9.59912 10.4066 10.316 10.4066 11.2004Z" fill="white"/>
<path d="M16.7952 11.1985C16.7952 12.0828 16.0783 12.7997 15.194 12.7997C14.3097 12.7997 13.5928 12.0828 13.5928 11.1985C13.5928 10.3141 14.3097 9.59723 15.194 9.59723C16.0783 9.59723 16.7952 10.3141 16.7952 11.1985Z" fill="white"/>
<path fill-rule="evenodd" clip-rule="evenodd" d="M18.5976 18.5976C18.4675 18.7278 18.4675 18.9389 18.5976 19.069L19.5405 20.0119L18.5977 20.9547C18.4675 21.0849 18.4675 21.296 18.5977 21.4261C18.7279 21.5563 18.9389 21.5563 19.0691 21.4261L20.0119 20.4833L20.9547 21.4261C21.0848 21.5562 21.2959 21.5562 21.4261 21.4261C21.5562 21.2959 21.5562 21.0848 21.4261 20.9547L20.4833 20.0119L21.4261 19.0691C21.5563 18.9389 21.5563 18.7279 21.4261 18.5977C21.296 18.4675 21.0849 18.4675 20.9547 18.5977L20.0119 19.5405L19.069 18.5976C18.9389 18.4675 18.7278 18.4675 18.5976 18.5976Z" fill="#3D50DF"/>
</svg>
