<svg width="24" height="24" viewBox="0 0 24 24" fill="none" xmlns="http://www.w3.org/2000/svg">
<path opacity="0.3" fill-rule="evenodd" clip-rule="evenodd" d="M5 15L3 21.5L9.5 19.5L5 15Z" fill="#0015FF"/>
<path fill-rule="evenodd" clip-rule="evenodd" d="M23 11.5C23 16.7465 18.7465 21 13.5 21C8.2535 21 4 16.7465 4 11.5C4 6.2535 8.2535 2 13.5 2C18.7465 2 23 6.2535 23 11.5ZM10.5 10C10.3674 10 10.2402 10.0527 10.1464 10.1464C10.0527 10.2402 10 10.3674 10 10.5V14.5C10 14.6326 10.0527 14.7598 10.1464 14.8536C10.2402 14.9473 10.3674 15 10.5 15H16.5C16.6326 15 16.7598 14.9473 16.8536 14.8536C16.9473 14.7598 17 14.6326 17 14.5V10.5C17 10.3674 16.9473 10.2402 16.8536 10.1464C16.7598 10.0527 16.6326 10 16.5 10H16V8.25C16 7.91848 15.8683 7.60054 15.6339 7.36612C15.3995 7.1317 15.0815 7 14.75 7H12.25C11.9185 7 11.6005 7.1317 11.3661 7.36612C11.1317 7.60054 11 7.91848 11 8.25V10H10.5ZM12.75 8C12.5511 8 12.3603 8.07902 12.2197 8.21967C12.079 8.36032 12 8.55109 12 8.75V10H15V8.75C15 8.55109 14.921 8.36032 14.7803 8.21967C14.6397 8.07902 14.4489 8 14.25 8H12.75Z" fill="#3D50DF"/>
</svg>
