<svg width="8" height="8" viewBox="0 0 8 8" fill="none" xmlns="http://www.w3.org/2000/svg">
<path fill-rule="evenodd" clip-rule="evenodd" d="M7.74169 0.25831C7.39728 -0.0861032 6.83887 -0.0861034 6.49446 0.25831L4.00015 2.75262L1.50585 0.258313C1.16143 -0.0861001 0.603029 -0.0861002 0.258616 0.258313C-0.0857974 0.602726 -0.0857976 1.16113 0.258616 1.50554L2.75292 3.99985L0.25831 6.49446C-0.0861032 6.83887 -0.0861034 7.39728 0.25831 7.74169C0.602723 8.0861 1.16113 8.0861 1.50554 7.74169L4.00015 5.24708L6.49477 7.74169C6.83918 8.08611 7.39758 8.08611 7.742 7.74169C8.08641 7.39728 8.08641 6.83888 7.742 6.49446L5.24738 3.99985L7.74169 1.50554C8.0861 1.16113 8.0861 0.602723 7.74169 0.25831Z" fill="black"/>
</svg>
