<svg width="14" height="14" viewBox="0 0 14 14" fill="none" xmlns="http://www.w3.org/2000/svg">
<path fill-rule="evenodd" clip-rule="evenodd" d="M6.47241 10.4771C6.64299 10.4921 6.81884 10.5 7.00007 10.5C9.86371 10.5 12.2501 7.00001 12.2501 7.00001C12.2501 7.00001 11.8595 6.42711 11.2046 5.74487L6.47241 10.4771Z" fill="#3D50DF"/>
<path fill-rule="evenodd" clip-rule="evenodd" d="M8.46133 3.78866C7.99609 3.60905 7.50548 3.5 7 3.5C3.18182 3.5 1.75 7 1.75 7C1.75 7 2.18754 8.06953 3.22385 9.02613L5.25 7C5.25 6.0335 6.0335 5.25 7 5.25L8.46133 3.78866Z" fill="#3D50DF"/>
<rect opacity="0.3" x="2.97498" y="10.7538" width="11.0833" height="1.16667" transform="rotate(-45 2.97498 10.7538)" fill="#0015FF"/>
</svg>
