<svg width="24" height="23" viewBox="0 0 24 23" fill="none" xmlns="http://www.w3.org/2000/svg">
<path fill-rule="evenodd" clip-rule="evenodd" d="M0 4C0 2.93913 0.421427 1.92172 1.17157 1.17157C1.92172 0.421427 2.93913 0 4 0H20C21.0609 0 22.0783 0.421427 22.8284 1.17157C23.5786 1.92172 24 2.93913 24 4V18.5C24 19.5609 23.5786 20.5783 22.8284 21.3284C22.0783 22.0786 21.0609 22.5 20 22.5H13.5V17.85C16.9235 17.155 19.5 14.1285 19.5 10.5C19.5 6.358 16.142 3 12 3C7.858 3 4.5 6.358 4.5 10.5C4.5 14.1285 7.0765 17.155 10.5 17.85V22.5H4C2.93913 22.5 1.92172 22.0786 1.17157 21.3284C0.421427 20.5783 0 19.5609 0 18.5V4Z" fill="#3D50DF"/>
<path opacity="0.3" fill-rule="evenodd" clip-rule="evenodd" d="M12 13.5C12.7956 13.5 13.5587 13.1839 14.1213 12.6213C14.6839 12.0587 15 11.2956 15 10.5C15 9.70435 14.6839 8.94129 14.1213 8.37868C13.5587 7.81607 12.7956 7.5 12 7.5C11.2044 7.5 10.4413 7.81607 9.87868 8.37868C9.31607 8.94129 9 9.70435 9 10.5C9 11.2956 9.31607 12.0587 9.87868 12.6213C10.4413 13.1839 11.2044 13.5 12 13.5Z" fill="#0015FF"/>
</svg>
