<svg width="24" height="27" viewBox="0 0 24 27" fill="none" xmlns="http://www.w3.org/2000/svg">
<path opacity="0.3" fill-rule="evenodd" clip-rule="evenodd" d="M10.3694 0.0150258L0 1.95945V17.7149C-1.93087e-06 18.5336 0.208226 19.3389 0.605102 20.0549C1.00198 20.771 1.57446 21.3743 2.26871 21.8083L10.2992 26.8271C10.3689 26.8707 10.4495 26.8938 10.5317 26.8938C10.614 26.8938 10.6946 26.8707 10.7643 26.8271L14.5004 24.4917C13.5672 23.3131 13.0605 21.8533 13.0629 20.35C13.0629 16.6587 16.0556 13.6668 19.7466 13.6668C20.1886 13.6665 20.6295 13.7099 21.063 13.7962V1.95901L10.6932 0.0150258C10.5863 -0.0050086 10.4767 -0.0050086 10.3698 0.0150258H10.3694Z" fill="#0015FF"/>
<path opacity="0.3" d="M16.5443 22.8921C16.4904 22.9527 16.4248 23.002 16.3515 23.0369C16.2783 23.0718 16.1988 23.0916 16.1177 23.0953C16.0366 23.099 15.9556 23.0864 15.8795 23.0583C15.8034 23.0301 15.7337 22.987 15.6745 22.9315C15.6153 22.876 15.5678 22.8092 15.5348 22.7351C15.5019 22.6609 15.4841 22.5809 15.4825 22.4998C15.481 22.4186 15.4957 22.338 15.5258 22.2626C15.5559 22.1873 15.6008 22.1187 15.6579 22.061L17.9362 19.6308C18.0431 19.5169 18.1898 19.4485 18.3458 19.4398C18.5018 19.4311 18.6551 19.4829 18.7739 19.5843L20.5722 21.1184L22.9155 18.1506C22.965 18.088 23.0263 18.0358 23.0959 17.9968C23.1656 17.9579 23.2422 17.9331 23.3214 17.9238C23.4007 17.9145 23.481 17.9209 23.5577 17.9426C23.6345 17.9643 23.7062 18.0009 23.7688 18.0504C23.8315 18.0998 23.8837 18.1611 23.9226 18.2307C23.9616 18.3004 23.9864 18.377 23.9957 18.4562C24.005 18.5355 23.9986 18.6158 23.9769 18.6925C23.9552 18.7693 23.9186 18.841 23.8691 18.9037L21.1348 22.3668C21.0842 22.431 21.0211 22.4843 20.9494 22.5236C20.8776 22.5628 20.7987 22.5872 20.7174 22.5952C20.636 22.6033 20.5538 22.5948 20.4758 22.5703C20.3978 22.5459 20.3255 22.5059 20.2633 22.4529L18.426 20.8849L16.5443 22.8921Z" fill="#0015FF"/>
<path fill-rule="evenodd" clip-rule="evenodd" d="M9.28701 7.59041C9.02371 7.59041 8.80957 7.80719 8.80957 8.07399V13.8774C8.80957 14.1442 9.02328 14.361 9.28701 14.361H11.6742C11.9375 14.361 12.1512 14.1442 12.1512 13.8774V8.07399C12.1512 7.80719 11.9375 7.59041 11.6742 7.59041H9.28701ZM12.1516 17.7461C12.1516 18.6808 11.4034 19.4386 10.4806 19.4386C9.55776 19.4386 8.80957 18.6808 8.80957 17.7461C8.80957 16.8114 9.55776 16.0535 10.4806 16.0535C11.4034 16.0535 12.1512 16.8114 12.1512 17.7461H12.1516Z" fill="#0015FF"/>
</svg>
