<svg width="8" height="10" viewBox="0 0 8 10" fill="none" xmlns="http://www.w3.org/2000/svg">
<path fill-rule="evenodd" clip-rule="evenodd" d="M1.25 0.5C0.697715 0.5 0.25 0.947715 0.25 1.5V8.5C0.25 9.05229 0.697715 9.5 1.25 9.5H2.25C2.80228 9.5 3.25 9.05229 3.25 8.5V1.5C3.25 0.947715 2.80228 0.5 2.25 0.5H1.25ZM5.75 0.5C5.19772 0.5 4.75 0.947715 4.75 1.5V8.5C4.75 9.05229 5.19772 9.5 5.75 9.5H6.75C7.30228 9.5 7.75 9.05229 7.75 8.5V1.5C7.75 0.947715 7.30228 0.5 6.75 0.5H5.75Z" fill="#3D50DF" fill-opacity="0.5"/>
</svg>
