<svg width="24" height="24" viewBox="0 0 24 24" fill="none" xmlns="http://www.w3.org/2000/svg">
<path fill-rule="evenodd" clip-rule="evenodd" d="M12 17L7.91565 19.1473C7.42681 19.4043 6.82218 19.2164 6.56518 18.7275C6.46284 18.5328 6.42753 18.3099 6.4647 18.0931L7.24475 13.5451L3.94042 10.3242C3.54493 9.93866 3.53684 9.30555 3.92234 8.91007C4.07585 8.75258 4.27699 8.6501 4.49463 8.61847L9.06111 7.95493L11.1033 3.817C11.3477 3.32174 11.9473 3.1184 12.4426 3.36283C12.6398 3.46016 12.7994 3.61978 12.8968 3.817L14.939 7.95493L19.5054 8.61847C20.052 8.69789 20.4307 9.20533 20.3512 9.75188C20.3196 9.96952 20.2171 10.1707 20.0596 10.3242L16.7553 13.5451L17.5354 18.0931C17.6287 18.6375 17.2631 19.1544 16.7188 19.2478C16.502 19.2849 16.2791 19.2496 16.0844 19.1473L12 17Z" fill="#3D50DF"/>
</svg>
