<svg width="24" height="24" viewBox="0 0 24 24" fill="none" xmlns="http://www.w3.org/2000/svg">
<path fill-rule="evenodd" clip-rule="evenodd" d="M4 3L11.6314 1.56911C11.875 1.52343 12.125 1.52343 12.3686 1.56911L20 3V10.9033C20 14.696 18.0462 18.2211 14.83 20.2313L12.53 21.6687C12.2057 21.8714 11.7943 21.8714 11.47 21.6687L9.17001 20.2313C5.95382 18.2211 4 14.696 4 10.9033L4 3Z" fill="#3D50DF"/>
<path fill-rule="evenodd" clip-rule="evenodd" d="M13 8.5C13 8.5 12.75 11 11.5 11.1752C11.5 11.1752 12.25 8.25 11.25 6.75C11.25 6.75 11.144 8.35722 10.0725 10.2859C9.57025 11.1899 9 11.7993 9 13C9 14.7143 10.7557 15.6003 12.0029 15.6003C13.25 15.6003 15 15.0003 15 12.9002C15 11.6049 13 8.5 13 8.5Z" fill="white"/>
</svg>
