<svg width="25" height="24" viewBox="0 0 25 24" fill="none" xmlns="http://www.w3.org/2000/svg">
<path opacity="0.3" fill-rule="evenodd" clip-rule="evenodd" d="M3.06068 10.6818C2.47489 11.2675 2.47489 12.2173 3.06068 12.8031L5.182 14.9244C5.76778 15.5102 6.71753 15.5102 7.30332 14.9244L9.42464 12.8031C10.0104 12.2173 10.0104 11.2675 9.42464 10.6818L7.30332 8.56043C6.71753 7.97465 5.76778 7.97465 5.182 8.56043L3.06068 10.6818ZM15.0607 10.6818C14.4749 11.2675 14.4749 12.2173 15.0607 12.8031L17.182 14.9244C17.7678 15.5102 18.7175 15.5102 19.3033 14.9244L21.4246 12.8031C22.0104 12.2173 22.0104 11.2675 21.4246 10.6818L19.3033 8.56043C18.7175 7.97465 17.7678 7.97465 17.182 8.56043L15.0607 10.6818Z" fill="#0015FF"/>
<path fill-rule="evenodd" clip-rule="evenodd" d="M9.06068 4.68175C8.47489 5.26754 8.47489 6.21729 9.06068 6.80307L11.182 8.92439C11.7678 9.51018 12.7175 9.51018 13.3033 8.92439L15.4246 6.80307C16.0104 6.21729 16.0104 5.26754 15.4246 4.68175L13.3033 2.56043C12.7175 1.97465 11.7678 1.97465 11.182 2.56043L9.06068 4.68175ZM9.06068 16.6818C8.47489 17.2675 8.47489 18.2173 9.06068 18.8031L11.182 20.9244C11.7678 21.5102 12.7175 21.5102 13.3033 20.9244L15.4246 18.8031C16.0104 18.2173 16.0104 17.2675 15.4246 16.6818L13.3033 14.5604C12.7175 13.9746 11.7678 13.9746 11.182 14.5604L9.06068 16.6818Z" fill="#3D50DF"/>
</svg>
