<svg width="25" height="24" viewBox="0 0 25 24" fill="none" xmlns="http://www.w3.org/2000/svg">
<path d="M19.1225 9.75H19.25C20.4926 9.75 21.5 10.7574 21.5 12C21.5 13.2426 20.4926 14.25 19.25 14.25L19.1855 14.25C18.9912 14.2508 18.8159 14.3669 18.7394 14.5454C18.6557 14.7351 18.6943 14.9481 18.8278 15.0847L18.8725 15.1294C19.295 15.5514 19.5324 16.1241 19.5324 16.7212C19.5324 17.3184 19.295 17.8911 18.8731 18.3125C18.4511 18.735 17.8784 18.9724 17.2812 18.9724C16.6841 18.9724 16.1114 18.735 15.6897 18.3128L15.6506 18.2736C15.5081 18.1343 15.2951 18.0957 15.1054 18.1794C14.9269 18.2559 14.8108 18.4312 14.81 18.6225V18.75C14.81 19.9926 13.8026 21 12.56 21C11.3174 21 10.31 19.9926 10.31 18.75C10.3055 18.4999 10.179 18.323 9.94718 18.2361C9.76485 18.1557 9.55191 18.1943 9.41533 18.3278L9.37063 18.3725C8.9486 18.795 8.37592 19.0324 7.77875 19.0324C7.18158 19.0324 6.6089 18.795 6.18746 18.3731C5.76497 17.9511 5.52757 17.3784 5.52757 16.7812C5.52757 16.1841 5.76497 15.6114 6.18717 15.1897L6.22635 15.1506C6.36571 15.0081 6.40432 14.7951 6.32065 14.6054C6.2441 14.4269 6.06881 14.3108 5.8775 14.31H5.75C4.50736 14.31 3.5 13.3026 3.5 12.06C3.5 10.8174 4.50736 9.81 5.75 9.81C6.00008 9.80552 6.177 9.67899 6.26385 9.44718C6.34432 9.26485 6.30571 9.05191 6.17217 8.91533L6.12747 8.87063C5.70497 8.4486 5.46757 7.87592 5.46757 7.27875C5.46757 6.68158 5.70497 6.1089 6.12687 5.68746C6.5489 5.26497 7.12158 5.02757 7.71875 5.02757C8.31592 5.02757 8.8886 5.26497 9.31033 5.68717L9.34945 5.72635C9.49191 5.86571 9.70485 5.90432 9.88718 5.82385L9.99485 5.80115C10.1504 5.71689 10.2493 5.55401 10.25 5.3775V5.25C10.25 4.00736 11.2574 3 12.5 3C13.7426 3 14.75 4.00736 14.75 5.25L14.75 5.31451C14.7508 5.50881 14.8669 5.6841 15.0528 5.76385C15.2351 5.84432 15.4481 5.80571 15.5847 5.67217L15.6294 5.62747C16.0514 5.20497 16.6241 4.96757 17.2212 4.96757C17.8184 4.96757 18.3911 5.20497 18.8125 5.62687C19.235 6.0489 19.4724 6.62158 19.4724 7.21875C19.4724 7.81592 19.235 8.3886 18.8128 8.81033L18.7736 8.84945C18.6343 8.99191 18.5957 9.20485 18.6761 9.38718L18.6989 9.49485C18.7831 9.65041 18.946 9.74929 19.1225 9.75Z" fill="#3D50DF"/>
<path fill-rule="evenodd" clip-rule="evenodd" d="M12.5 15C14.1569 15 15.5 13.6569 15.5 12C15.5 10.3431 14.1569 9 12.5 9C10.8431 9 9.5 10.3431 9.5 12C9.5 13.6569 10.8431 15 12.5 15Z" fill="white"/>
</svg>
