<svg width="24" height="20" viewBox="0 0 24 20" fill="none" xmlns="http://www.w3.org/2000/svg">
<path opacity="0.3" fill-rule="evenodd" clip-rule="evenodd" d="M12.0002 13.2C11.6819 13.2 11.3767 13.3264 11.1517 13.5515C10.9266 13.7765 10.8002 14.0817 10.8002 14.4V18H7.8002C7.64107 18 7.48845 18.0632 7.37593 18.1757C7.26341 18.2883 7.2002 18.4409 7.2002 18.6C7.2002 18.7591 7.26341 18.9117 7.37593 19.0243C7.48845 19.1368 7.64107 19.2 7.8002 19.2H16.2002C16.3593 19.2 16.5119 19.1368 16.6245 19.0243C16.737 18.9117 16.8002 18.7591 16.8002 18.6C16.8002 18.4409 16.737 18.2883 16.6245 18.1757C16.5119 18.0632 16.3593 18 16.2002 18H13.2002V14.4C13.2002 14.0817 13.0738 13.7765 12.8487 13.5515C12.6237 13.3264 12.3185 13.2 12.0002 13.2Z" fill="#0015FF"/>
<path fill-rule="evenodd" clip-rule="evenodd" d="M1.2 0C0.88174 0 0.576516 0.126428 0.351472 0.351472C0.126428 0.576515 0 0.88174 0 1.2V13.2C0 13.5183 0.126428 13.8235 0.351472 14.0485C0.576516 14.2736 0.88174 14.4 1.2 14.4H14.7048C14.5023 13.7843 14.3994 13.1402 14.4 12.492C14.4 9.128 17.1276 6.4 20.492 6.4C21.7984 6.4 23.008 6.8108 24 7.5104V1.2C24 0.88174 23.8736 0.576515 23.6485 0.351472C23.4235 0.126428 23.1183 0 22.8 0H1.2ZM3 3.6C2.84087 3.6 2.68826 3.66321 2.57574 3.77574C2.46321 3.88826 2.4 4.04087 2.4 4.2C2.4 4.35913 2.46321 4.51174 2.57574 4.62426C2.68826 4.73679 2.84087 4.8 3 4.8H13.8C13.9591 4.8 14.1117 4.73679 14.2243 4.62426C14.3368 4.51174 14.4 4.35913 14.4 4.2C14.4 4.04087 14.3368 3.88826 14.2243 3.77574C14.1117 3.66321 13.9591 3.6 13.8 3.6H3ZM2.4 6.6C2.4 6.44087 2.46321 6.28826 2.57574 6.17574C2.68826 6.06321 2.84087 6 3 6H6.6C6.75913 6 6.91174 6.06321 7.02426 6.17574C7.13679 6.28826 7.2 6.44087 7.2 6.6C7.2 6.75913 7.13679 6.91174 7.02426 7.02426C6.91174 7.13679 6.75913 7.2 6.6 7.2H3C2.84087 7.2 2.68826 7.13679 2.57574 7.02426C2.46321 6.91174 2.4 6.75913 2.4 6.6Z" fill="#3D50DF"/>
<path opacity="0.3" fill-rule="evenodd" clip-rule="evenodd" d="M17.2002 9.78593L20.2526 9.21393C20.3501 9.19562 20.4502 9.19562 20.5478 9.21393L23.6002 9.78553V12.9467C23.6002 13.693 23.4104 14.427 23.0486 15.0797C22.6869 15.7324 22.165 16.2824 21.5322 16.6779L20.6122 17.2531C20.5486 17.2929 20.4752 17.3139 20.4002 17.3139C20.3252 17.3139 20.2518 17.2929 20.1882 17.2531L19.2682 16.6779C18.6354 16.2824 18.1136 15.7325 17.7519 15.0799C17.3901 14.4272 17.2003 13.6933 17.2002 12.9471V9.78593Z" fill="#0015FF"/>
</svg>
