<svg width="25" height="24" viewBox="0 0 25 24" fill="none" xmlns="http://www.w3.org/2000/svg">
<path fill-rule="evenodd" clip-rule="evenodd" d="M16.6666 17.5C16.6666 16.9477 17.0646 16.5 17.5555 16.5H21.1111C21.602 16.5 22 16.9477 22 17.5V23.3634C22 23.7984 21.5403 24.0259 21.2552 23.732L19.6336 22.0597C19.4637 21.8845 19.2029 21.8845 19.033 22.0597L17.4114 23.732C17.1263 24.0259 16.6666 23.7984 16.6666 23.3634V17.5Z" fill="#3D50DF"/>
<path d="M4.99988 3H7.99988V3.5C7.99988 4.32843 8.67145 5 9.49988 5H14.4999C15.3283 5 15.9999 4.32843 15.9999 3.5V3H18.9999C19.5522 3 19.9999 3.44772 19.9999 4V13.7C19.9999 14.6941 19.194 15.5 18.1999 15.5C16.7087 15.5 15.4999 16.7088 15.4999 18.2V21C15.4999 22.1046 14.6044 23 13.4999 23H4.99988C4.44759 23 3.99988 22.5523 3.99988 22V4C3.99988 3.44772 4.44759 3 4.99988 3Z" fill="#3D50DF"/>
<path opacity="0.4" d="M12.9553 12.9613C12.7926 12.7986 12.7926 12.5348 12.9553 12.372C13.118 12.2093 13.3818 12.2093 13.5445 12.372L15.2112 14.0387C15.3739 14.2014 15.3739 14.4652 15.2112 14.628C15.0485 14.7907 14.7847 14.7907 14.622 14.628L12.9553 12.9613Z" fill="white"/>
<path fill-rule="evenodd" clip-rule="evenodd" d="M8.6665 10.5833C8.6665 12.1942 9.97234 13.5 11.5832 13.5C13.194 13.5 14.4998 12.1942 14.4998 10.5833C14.4998 8.9725 13.194 7.66667 11.5832 7.66667C9.97234 7.66667 8.6665 8.9725 8.6665 10.5833ZM13.6665 10.5833C13.6665 11.7339 12.7338 12.6667 11.5832 12.6667C10.4326 12.6667 9.49983 11.7339 9.49983 10.5833C9.49983 9.43274 10.4326 8.5 11.5832 8.5C12.7338 8.5 13.6665 9.43274 13.6665 10.5833Z" fill="white"/>
<path fill-rule="evenodd" clip-rule="evenodd" d="M12.9999 2H14.4999C14.776 2 14.9999 2.22386 14.9999 2.5V3.5C14.9999 3.77614 14.776 4 14.4999 4H9.49988C9.22374 4 8.99988 3.77614 8.99988 3.5V2.5C8.99988 2.22386 9.22374 2 9.49988 2H10.9999C10.9999 1.44772 11.4476 1 11.9999 1C12.5522 1 12.9999 1.44772 12.9999 2Z" fill="#B3B9FF"/>
</svg>
