<svg width="24" height="24" viewBox="0 0 24 24" fill="none" xmlns="http://www.w3.org/2000/svg">
<rect x="2" y="3" width="20" height="18" rx="2" fill="#3D50DF"/>
<path d="M9.94868 13.3162C9.81257 13.7246 9.43043 14 9 14H5C4.44772 14 4 13.5523 4 13C4 12.4477 4.44772 12 5 12H8.27924L10.0513 6.68377C10.3677 5.73466 11.7275 5.78689 11.9701 6.75746L13.8145 14.1349L14.6056 12.5528C14.775 12.214 15.1212 12 15.5 12H19C19.5523 12 20 12.4477 20 13C20 13.5523 19.5523 14 19 14H16.118L14.3944 17.4472C13.9792 18.2776 12.755 18.1432 12.5299 17.2425L10.8627 10.5741L9.94868 13.3162Z" fill="white"/>
<path opacity="0.4" fill-rule="evenodd" clip-rule="evenodd" d="M19 7C19.5523 7 20 6.55228 20 6C20 5.44772 19.5523 5 19 5C18.4477 5 18 5.44772 18 6C18 6.55228 18.4477 7 19 7Z" fill="white"/>
</svg>
