<svg width="42" height="42" viewBox="0 0 42 42" fill="none" xmlns="http://www.w3.org/2000/svg">
<path d="M22.2602 12.096C22.2602 10.9826 21.6961 10.08 21.0002 10.08C20.3044 10.08 19.7402 10.9826 19.7402 12.096V13.104C19.7402 14.2174 20.3044 15.12 21.0002 15.12C21.6961 15.12 22.2602 14.2174 22.2602 13.104V12.096Z" fill="#3D50DF"/>
<path d="M26.5435 13.9189C27.1002 12.9547 27.063 11.8909 26.4603 11.543C25.8577 11.1951 24.9178 11.6947 24.3611 12.6589L23.8571 13.5319C23.3004 14.4961 23.3377 15.5598 23.9403 15.9078C24.543 16.2557 25.4828 15.7561 26.0395 14.7919L26.5435 13.9189Z" fill="#3D50DF"/>
<path d="M29.3412 17.6392C30.3055 17.0825 30.8051 16.1427 30.4571 15.54C30.1092 14.9374 29.0455 14.9001 28.0812 15.4568L27.2083 15.9608C26.2441 16.5175 25.7444 17.4574 26.0924 18.06C26.4403 18.6627 27.5041 18.6999 28.4683 18.1432L29.3412 17.6392Z" fill="#3D50DF"/>
<path d="M29.9039 22.26C31.0173 22.26 31.9199 21.6959 31.9199 21C31.9199 20.3041 31.0173 19.74 29.9039 19.74H28.8959C27.7825 19.74 26.8799 20.3041 26.8799 21C26.8799 21.6959 27.7825 22.26 28.8959 22.26H29.9039Z" fill="#3D50DF"/>
<path d="M28.0815 26.5432C29.0457 27.0999 30.1095 27.0627 30.4574 26.46C30.8053 25.8574 30.3057 24.9175 29.3415 24.3608L28.4685 23.8568C27.5043 23.3001 26.4406 23.3374 26.0926 23.94C25.7447 24.5427 26.2443 25.4825 27.2085 26.0392L28.0815 26.5432Z" fill="#3D50DF"/>
<path d="M24.3604 29.3411C24.9171 30.3053 25.8569 30.8049 26.4596 30.457C27.0622 30.1091 27.0995 29.0453 26.5428 28.0811L26.0388 27.2081C25.4821 26.2439 24.5422 25.7443 23.9396 26.0922C23.3369 26.4402 23.2997 27.5039 23.8564 28.4681L24.3604 29.3411Z" fill="#3D50DF"/>
<path d="M19.7398 29.904C19.7398 31.0174 20.3039 31.92 20.9998 31.92C21.6956 31.92 22.2598 31.0174 22.2598 29.904V28.896C22.2598 27.7826 21.6956 26.88 20.9998 26.88C20.3039 26.88 19.7398 27.7826 19.7398 28.896V29.904Z" fill="#3D50DF"/>
<path d="M15.4565 28.0811C14.8998 29.0453 14.937 30.1091 15.5397 30.457C16.1423 30.8049 17.0822 30.3053 17.6389 29.3411L18.1429 28.4681C18.6996 27.5039 18.6623 26.4402 18.0597 26.0922C17.457 25.7443 16.5172 26.2439 15.9605 27.2081L15.4565 28.0811Z" fill="#3D50DF"/>
<path d="M12.6588 24.3608C11.6945 24.9175 11.1949 25.8573 11.5429 26.46C11.8908 27.0626 12.9545 27.0999 13.9188 26.5432L14.7917 26.0392C15.7559 25.4825 16.2556 24.5426 15.9076 23.94C15.5597 23.3373 14.496 23.3001 13.5317 23.8568L12.6588 24.3608Z" fill="#3D50DF"/>
<path d="M12.0961 19.74C10.9827 19.74 10.0801 20.3041 10.0801 21C10.0801 21.6959 10.9827 22.26 12.0961 22.26H13.1041C14.2175 22.26 15.1201 21.6959 15.1201 21C15.1201 20.3041 14.2175 19.74 13.1041 19.74H12.0961Z" fill="#3D50DF"/>
<path d="M13.9185 15.4568C12.9543 14.9001 11.8905 14.9373 11.5426 15.54C11.1947 16.1426 11.6943 17.0825 12.6585 17.6392L13.5315 18.1432C14.4957 18.6999 15.5594 18.6626 15.9074 18.06C16.2553 17.4573 15.7557 16.5175 14.7915 15.9608L13.9185 15.4568Z" fill="#3D50DF"/>
<path d="M17.6396 12.6589C17.0829 11.6947 16.1431 11.1951 15.5404 11.543C14.9378 11.8909 14.9005 12.9547 15.4572 13.9189L15.9612 14.7919C16.5179 15.7561 17.4578 16.2557 18.0604 15.9078C18.6631 15.5598 18.7003 14.4961 18.1436 13.5319L17.6396 12.6589Z" fill="#3D50DF"/>
</svg>
