<svg width="148" height="36" viewBox="0 0 148 36" fill="none" xmlns="http://www.w3.org/2000/svg">
<path d="M39.9888 28.3801L38.2138 33.8504H37.6264L36.0849 29.1854L34.5351 33.8504H33.956L32.1801 28.3811H32.7518L34.2713 33.0847L35.8431 28.3801H36.3634L37.9132 33.1086L39.4548 28.3801H39.9888ZM44.0417 31.9679H40.7316C40.761 32.3944 40.9191 32.7409 41.205 33.0066C41.4908 33.2667 41.8521 33.3972 42.2887 33.3972C42.5342 33.3972 42.7603 33.3531 42.9653 33.2649C43.1717 33.1706 43.3544 33.0315 43.5003 32.8577L43.8008 33.218C43.6253 33.4368 43.4047 33.6032 43.139 33.7181C42.8658 33.8351 42.5712 33.8937 42.274 33.89C41.8677 33.89 41.5065 33.8008 41.1903 33.6234C40.8829 33.4448 40.6305 33.1854 40.4604 32.8733C40.2817 32.5424 40.1912 32.1711 40.1975 31.795C40.1975 31.3943 40.2802 31.0349 40.4457 30.7168C40.6157 30.3988 40.8465 30.1515 41.1379 29.9741C41.4338 29.7976 41.7648 29.7084 42.1306 29.7084C42.4965 29.7084 42.8255 29.7976 43.116 29.975C43.4074 30.1515 43.6354 30.3988 43.8008 30.7168C43.9663 31.0293 44.049 31.3888 44.049 31.795L44.0417 31.9669V31.9679ZM42.1306 30.1846C41.9525 30.1804 41.7754 30.2121 41.6099 30.278C41.4443 30.3439 41.2938 30.4425 41.1673 30.5679C40.9117 30.8188 40.7665 31.147 40.7316 31.5533H43.5379C43.5021 31.147 43.3541 30.8179 43.094 30.5679C42.8375 30.3133 42.5167 30.1855 42.1306 30.1855V30.1846ZM47.1753 29.7084C47.5467 29.7084 47.8831 29.7976 48.1837 29.975C48.4843 30.146 48.7196 30.3914 48.8906 30.7094C49.0606 31.0266 49.1461 31.3897 49.1461 31.795C49.1461 32.2013 49.0606 32.5635 48.8906 32.8816C48.7287 33.1904 48.4835 33.4477 48.1828 33.6243C47.8822 33.8008 47.5467 33.89 47.1753 33.89C46.8444 33.89 46.5456 33.8164 46.28 33.6712C46.0154 33.5217 45.7967 33.3027 45.6476 33.0378V33.8504H45.1365V28.052H45.6705V30.5219C45.836 30.2554 46.0474 30.055 46.302 29.9198C46.5631 29.7792 46.8536 29.7084 47.1753 29.7084ZM47.1376 33.3972C47.4134 33.3972 47.6643 33.3329 47.8895 33.2024C48.1157 33.0663 48.2912 32.8761 48.4162 32.6315C48.5468 32.387 48.612 32.1076 48.612 31.795C48.612 31.4825 48.5477 31.204 48.4162 30.9586C48.2997 30.7237 48.1165 30.5283 47.8895 30.3969C47.6625 30.2608 47.4023 30.1902 47.1376 30.1928C46.8563 30.1928 46.6035 30.2609 46.3774 30.396C46.1568 30.5265 45.9821 30.714 45.8507 30.9595C45.7257 31.204 45.6632 31.4834 45.6632 31.796C45.6632 32.1085 45.7257 32.387 45.8507 32.6315C45.9812 32.8761 46.1568 33.0663 46.3774 33.2015C46.6035 33.332 46.8563 33.3972 47.1376 33.3972ZM51.2962 33.889C50.9744 33.889 50.6665 33.8431 50.3705 33.7493C50.08 33.65 49.8511 33.5278 49.6857 33.3816L49.9265 32.9441C50.092 33.0792 50.3006 33.1923 50.5516 33.2805C50.8016 33.3632 51.0627 33.4055 51.3329 33.4055C51.6951 33.4055 51.9608 33.3476 52.1308 33.2336C52.2143 33.1802 52.2825 33.1061 52.3287 33.0184C52.375 32.9308 52.3977 32.8326 52.3946 32.7336C52.3983 32.6679 52.3874 32.6023 52.3626 32.5414C52.3378 32.4805 52.2998 32.4259 52.2512 32.3815C52.1481 32.2884 52.0243 32.2213 51.89 32.1857C51.7001 32.1287 51.5067 32.0844 51.3109 32.0534C51.0493 32.0054 50.7906 31.9428 50.536 31.8658C50.3419 31.7989 50.1684 31.683 50.0322 31.5294C49.8962 31.3731 49.8291 31.1571 49.8291 30.8813C49.8291 30.5366 49.967 30.2563 50.2427 30.0366C50.5185 29.8178 50.9018 29.7084 51.3936 29.7084C51.6491 29.7084 51.9056 29.7452 52.1611 29.8187C52.4167 29.8858 52.6272 29.9768 52.7936 30.0917L52.5601 30.5366C52.2338 30.3022 51.8449 30.1855 51.3936 30.1855C51.0535 30.1855 50.7943 30.248 50.6187 30.373C50.5385 30.4274 50.4731 30.501 50.4285 30.587C50.3839 30.673 50.3614 30.7688 50.3631 30.8657C50.3631 31.022 50.411 31.147 50.5056 31.2408C50.6068 31.3345 50.729 31.4044 50.8742 31.4522C51.0204 31.4926 51.2208 31.5377 51.4763 31.5845C51.7925 31.6471 52.0462 31.7096 52.2365 31.7721C52.4268 31.8346 52.5904 31.9412 52.7255 32.092C52.8607 32.2436 52.9278 32.4514 52.9278 32.717C52.9278 33.0774 52.7835 33.3632 52.4921 33.5774C52.2071 33.7852 51.8072 33.89 51.2962 33.89V33.889ZM53.9159 29.7397H54.45V33.8504H53.9169V29.7397H53.9159ZM54.1871 28.8416C54.135 28.8427 54.0833 28.8327 54.0353 28.8125C53.9873 28.7922 53.9441 28.762 53.9086 28.7239C53.8719 28.6869 53.8431 28.643 53.8237 28.5947C53.8042 28.5464 53.7947 28.4947 53.7955 28.4427C53.7955 28.3388 53.8332 28.2478 53.9086 28.1696C53.9442 28.1316 53.9873 28.1015 54.0353 28.0812C54.0833 28.0609 54.135 28.051 54.1871 28.052C54.2974 28.052 54.3893 28.0906 54.4656 28.1687C54.5401 28.2423 54.5778 28.3305 54.5778 28.4353C54.5778 28.5493 54.541 28.6467 54.4656 28.7239C54.4301 28.762 54.3869 28.7922 54.3389 28.8125C54.2909 28.8327 54.2392 28.8427 54.1871 28.8416ZM58.0203 33.6004C57.9201 33.6942 57.7951 33.7668 57.6434 33.8192C57.4954 33.8665 57.341 33.8904 57.1856 33.89C56.8142 33.89 56.5284 33.7852 56.328 33.5774C56.1267 33.3688 56.0265 33.0746 56.0265 32.694V30.2085H55.3187V29.7397H56.0265V28.8416H56.5605V29.7397H57.7647V30.2085H56.5605V32.6628C56.5605 32.9073 56.6184 33.0948 56.7343 33.2254C56.8538 33.3504 57.0247 33.4129 57.2454 33.4129C57.4598 33.4132 57.6677 33.3384 57.8327 33.2015L58.0203 33.6004ZM62.2992 31.9679H58.9882C59.0185 32.3944 59.1766 32.7409 59.4625 33.0066C59.7484 33.2667 60.1096 33.3972 60.5463 33.3972C60.7917 33.3972 61.0178 33.3531 61.2228 33.2649C61.4289 33.1705 61.6113 33.0314 61.7569 32.8577L62.0584 33.218C61.8828 33.4368 61.6622 33.6032 61.3966 33.7181C61.1231 33.8353 60.8281 33.8938 60.5307 33.89C60.1244 33.89 59.7631 33.8008 59.4478 33.6234C59.1405 33.4448 58.888 33.1854 58.7179 32.8733C58.539 32.5425 58.4481 32.1711 58.4541 31.795C58.4541 31.3943 58.5369 31.0349 58.7023 30.7168C58.8733 30.3988 59.104 30.1515 59.3945 29.9741C59.6905 29.7976 60.0214 29.7084 60.3873 29.7084C60.754 29.7084 61.0822 29.7976 61.3736 29.975C61.6641 30.1515 61.8929 30.3988 62.0584 30.7168C62.2239 31.0293 62.3066 31.3888 62.3066 31.795L62.2992 31.9669V31.9679ZM60.3873 30.1846C60.2093 30.1805 60.0323 30.2123 59.867 30.2782C59.7016 30.344 59.5512 30.4426 59.4248 30.5679C59.1693 30.8188 59.024 31.147 58.9882 31.5533H61.7946C61.7596 31.147 61.6117 30.8179 61.3506 30.5679C61.0951 30.3133 60.7742 30.1855 60.3882 30.1855L60.3873 30.1846ZM66.9275 33.8982C66.5359 33.8982 66.16 33.832 65.7987 33.7024C65.443 33.5719 65.1672 33.3991 64.9714 33.1867L65.1893 32.7409C65.3805 32.9386 65.6332 33.1003 65.9495 33.2254C66.2657 33.3449 66.5911 33.4055 66.9275 33.4055C67.3991 33.4055 67.753 33.3164 67.9883 33.139C68.0996 33.0589 68.1899 32.9532 68.2515 32.8308C68.3131 32.7083 68.3442 32.5728 68.3422 32.4357C68.3422 32.217 68.2769 32.0432 68.1464 31.9118C68.0156 31.7785 67.8558 31.6772 67.6794 31.6158C67.4261 31.5221 67.1673 31.4438 66.9045 31.3814C66.5834 31.3008 66.2673 31.2017 65.9577 31.0845C65.7221 30.9859 65.513 30.8331 65.3474 30.6387C65.1819 30.441 65.0992 30.1726 65.0992 29.8334C65.0992 29.5577 65.17 29.3076 65.3106 29.0834C65.4503 28.8535 65.6663 28.6725 65.9568 28.5364C66.2482 28.4013 66.6095 28.3342 67.0406 28.3342C67.3412 28.3342 67.6344 28.3774 67.9203 28.4666C68.2117 28.5493 68.4626 28.6669 68.6731 28.8177L68.4847 29.2791C68.2682 29.1299 68.0293 29.0163 67.7769 28.9427C67.5387 28.8668 67.2905 28.8274 67.0406 28.826C66.5791 28.826 66.2298 28.9197 65.9945 29.1072C65.8845 29.1897 65.7958 29.2971 65.7357 29.4207C65.6756 29.5443 65.6458 29.6804 65.6489 29.8178C65.6489 30.0366 65.7114 30.214 65.8364 30.3491C65.9669 30.4796 66.1278 30.5817 66.3181 30.6543C66.5139 30.7223 66.774 30.7977 67.1003 30.8813C67.4864 30.9797 67.798 31.079 68.0333 31.1783C68.2742 31.272 68.4773 31.4172 68.6428 31.6158C68.8082 31.8088 68.891 32.0717 68.891 32.4045C68.891 32.6803 68.8183 32.934 68.6731 33.1629C68.5325 33.3871 68.3146 33.5673 68.0186 33.7024C67.7226 33.832 67.3586 33.8973 66.9275 33.8973V33.8982ZM73.4365 31.9679H70.1273C70.1567 32.3944 70.3148 32.7409 70.6007 33.0066C70.8857 33.2667 71.2478 33.3972 71.6835 33.3972C71.9299 33.3972 72.1551 33.3531 72.361 33.2649C72.5671 33.1705 72.7495 33.0314 72.8951 32.8577L73.1966 33.218C73.0201 33.4368 72.8004 33.6032 72.5347 33.7181C72.2613 33.8352 71.9663 33.8938 71.6688 33.89C71.2625 33.89 70.9013 33.8008 70.586 33.6234C70.2787 33.4448 70.0262 33.1854 69.8561 32.8733C69.6772 32.5425 69.5863 32.1711 69.5923 31.795C69.5923 31.3943 69.6751 31.0349 69.8405 30.7168C70.0115 30.3988 70.2422 30.1515 70.5327 29.9741C70.8287 29.7976 71.1596 29.7084 71.5254 29.7084C71.8922 29.7084 72.2204 29.7976 72.5118 29.975C72.8022 30.1515 73.0302 30.3988 73.1966 30.7168C73.362 31.0293 73.4448 31.3888 73.4448 31.795L73.4365 31.9669V31.9679ZM71.5264 30.1846C71.3483 30.1804 71.1711 30.2121 71.0056 30.278C70.8401 30.3439 70.6895 30.4425 70.563 30.5679C70.3075 30.8188 70.1613 31.147 70.1264 31.5533H72.9328C72.8978 31.147 72.7489 30.8179 72.4888 30.5679C72.2332 30.3133 71.9124 30.1855 71.5264 30.1855V30.1846ZM76.1721 33.889C75.7805 33.889 75.4294 33.8008 75.1187 33.6243C74.8137 33.4484 74.5636 33.1912 74.3962 32.8816C74.218 32.5475 74.1276 32.1736 74.1333 31.795C74.1333 31.3943 74.2206 31.0349 74.3962 30.7168C74.5717 30.3988 74.8126 30.1515 75.1187 29.9741C75.4294 29.7976 75.7805 29.7084 76.1721 29.7084C76.5122 29.7084 76.8156 29.7792 77.0821 29.9198C77.3524 30.055 77.5656 30.2554 77.7219 30.5219L77.323 30.8032C77.2027 30.6088 77.0309 30.4516 76.8266 30.3491C76.6244 30.2445 76.3997 30.1909 76.1721 30.1928C75.8862 30.1928 75.6279 30.2609 75.3972 30.396C75.1711 30.5265 74.9927 30.714 74.8631 30.9595C74.7372 31.204 74.6747 31.4834 74.6747 31.796C74.6747 32.1131 74.7372 32.3944 74.8631 32.6389C74.9927 32.8788 75.1711 33.0663 75.3963 33.2024C75.6279 33.332 75.8862 33.3972 76.1721 33.3972C76.4074 33.3972 76.6253 33.3476 76.8266 33.2493C77.027 33.15 77.1924 32.9983 77.323 32.7952L77.7219 33.0774C77.5656 33.343 77.3524 33.5462 77.0821 33.6868C76.7989 33.8248 76.4871 33.894 76.1721 33.889ZM82.3373 29.7397V33.8504H81.8253V33.1003C81.69 33.3455 81.4896 33.5484 81.2462 33.6868C80.9872 33.8252 80.6969 33.8949 80.4033 33.889C79.8867 33.889 79.4785 33.742 79.177 33.4441C78.881 33.1417 78.7331 32.7014 78.7331 32.1232V29.7397H79.2671V32.069C79.2671 32.501 79.3701 32.8292 79.576 33.0535C79.7819 33.2778 80.0751 33.3899 80.4557 33.3899C80.8721 33.3899 81.2002 33.2594 81.442 32.9992C81.6819 32.7327 81.8023 32.365 81.8023 31.8962V29.7397H82.3373ZM84.3449 30.5449C84.4699 30.2691 84.6556 30.0605 84.901 29.9198C85.152 29.7792 85.4608 29.7084 85.8267 29.7084V30.248L85.6989 30.2397C85.2825 30.2397 84.9562 30.373 84.7209 30.6387C84.4846 30.9052 84.367 31.2766 84.367 31.7564V33.8504H83.8329V29.7397H84.3449V30.5449ZM86.7937 29.7397H87.3278V33.8504H86.7937V29.7397ZM87.0649 28.8416C87.0128 28.8426 86.9611 28.8327 86.9131 28.8124C86.8651 28.7921 86.8219 28.762 86.7863 28.7239C86.7497 28.6869 86.7208 28.643 86.7014 28.5947C86.682 28.5464 86.6724 28.4947 86.6733 28.4427C86.6733 28.3388 86.711 28.2478 86.7863 28.1696C86.8219 28.1316 86.8651 28.1015 86.9131 28.0812C86.9611 28.0609 87.0128 28.051 87.0649 28.052C87.1752 28.052 87.268 28.0906 87.3434 28.1687C87.3796 28.2029 87.4082 28.2443 87.4275 28.2902C87.4468 28.3361 87.4564 28.3855 87.4555 28.4353C87.4555 28.5493 87.4178 28.6467 87.3434 28.7239C87.3078 28.762 87.2646 28.7921 87.2166 28.8124C87.1687 28.8327 87.1169 28.8426 87.0649 28.8416ZM90.898 33.6004C90.7896 33.6991 90.6614 33.7737 90.5221 33.8192C90.3738 33.8666 90.219 33.8905 90.0634 33.89C89.692 33.89 89.4061 33.7852 89.2057 33.5774C89.0044 33.3688 88.9042 33.0746 88.9042 32.694V30.2085H88.1973V29.7397H88.9042V28.8416H89.4383V29.7397H90.6425V30.2085H89.4383V32.6628C89.4383 32.9073 89.4962 33.0948 89.612 33.2254C89.7324 33.3504 89.9025 33.4129 90.1231 33.4129C90.3376 33.4132 90.5454 33.3384 90.7105 33.2015L90.898 33.6004ZM95.1227 29.7397L93.1437 34.3431C92.9828 34.7292 92.798 35.0022 92.5866 35.1631C92.3682 35.3274 92.1006 35.4129 91.8273 35.4057C91.6361 35.4057 91.4587 35.3745 91.2933 35.312C91.1309 35.2516 90.9842 35.1555 90.864 35.0307L91.1122 34.6171C91.3135 34.8248 91.5534 34.9296 91.8347 34.9296C92.0014 34.9343 92.1642 34.8788 92.2934 34.7733C92.4239 34.6685 92.5443 34.4911 92.6546 34.2411L92.8275 33.8431L91.0598 29.7397H91.6168L93.106 33.2327L94.596 29.7397H95.1227ZM101.726 33.9368L100.996 33.1555C100.55 33.65 99.9624 33.8973 99.2353 33.8973C98.8943 33.8973 98.5882 33.8403 98.318 33.7254C98.0696 33.6199 97.8539 33.4501 97.6929 33.2336C97.5432 33.021 97.4644 32.7666 97.4677 32.5065C97.4677 32.1784 97.5679 31.8842 97.7683 31.6241C97.9687 31.363 98.3097 31.0891 98.7914 30.8032C98.5404 30.532 98.3676 30.3032 98.2729 30.1147C98.1782 29.9256 98.1291 29.7168 98.1295 29.5053C98.1295 29.156 98.2499 28.8747 98.4908 28.6614C98.7316 28.4482 99.0552 28.3415 99.4615 28.3415C99.8374 28.3415 100.136 28.4371 100.357 28.6302C100.577 28.8232 100.688 29.0889 100.688 29.4271C100.688 29.6983 100.599 29.9428 100.424 30.1625C100.248 30.3758 99.945 30.6129 99.5139 30.8731L100.958 32.4201C101.13 32.0893 101.25 31.7335 101.312 31.3658L101.748 31.5064C101.653 31.9954 101.498 32.4155 101.282 32.7639L102.034 33.5691L101.726 33.9368ZM99.4615 28.7552C99.2004 28.7552 98.9945 28.8232 98.8447 28.9583C98.7716 29.0273 98.7142 29.1112 98.6765 29.2043C98.6387 29.2974 98.6215 29.3975 98.6259 29.4979C98.6259 29.6588 98.6663 29.8132 98.7463 29.9584C98.8263 30.1055 98.9844 30.3032 99.2206 30.5532C99.6012 30.3234 99.865 30.1285 100.01 29.9667C100.148 29.8238 100.226 29.6338 100.228 29.4354C100.228 29.2267 100.161 29.0622 100.025 28.9427C99.8898 28.8177 99.7023 28.7552 99.4615 28.7552ZM99.2657 33.4368C99.8475 33.4368 100.319 33.2309 100.68 32.8191L99.0929 31.1231C98.6765 31.3685 98.3878 31.5891 98.227 31.7877C98.0753 31.9755 97.9932 32.21 97.9944 32.4514C97.9944 32.7483 98.1093 32.9882 98.34 33.1702C98.5763 33.3476 98.8842 33.4368 99.2657 33.4368ZM110.428 28.3801V33.8504H109.894V29.4749L107.825 33.1546H107.562L105.492 29.4979V33.8504H104.958V28.3811H105.417L107.704 32.4357L109.969 28.3801H110.428ZM113.648 33.889C113.267 33.889 112.923 33.8008 112.617 33.6243C112.313 33.4441 112.064 33.1849 111.895 32.8742C111.716 32.543 111.625 32.1714 111.632 31.795C111.632 31.3943 111.719 31.0349 111.895 30.7168C112.062 30.4072 112.312 30.15 112.617 29.9741C112.923 29.7976 113.267 29.7084 113.648 29.7084C114.009 29.7035 114.365 29.7956 114.679 29.975C114.985 30.1515 115.223 30.3988 115.393 30.7168C115.569 31.0349 115.657 31.3943 115.657 31.795C115.657 32.1967 115.569 32.5562 115.393 32.8733C115.23 33.185 114.982 33.445 114.679 33.6243C114.365 33.8034 114.009 33.8951 113.648 33.89V33.889ZM113.648 33.3972C113.929 33.3972 114.18 33.3329 114.401 33.2024C114.626 33.0663 114.801 32.8761 114.927 32.6315C115.052 32.387 115.115 32.1076 115.115 31.795C115.115 31.4825 115.052 31.204 114.927 30.9586C114.81 30.7239 114.627 30.5286 114.401 30.3969C114.174 30.2594 113.913 30.1887 113.648 30.1928C113.367 30.1928 113.114 30.2609 112.889 30.396C112.668 30.5265 112.492 30.714 112.362 30.9595C112.233 31.2191 112.168 31.506 112.173 31.796C112.173 32.1085 112.236 32.387 112.362 32.6315C112.492 32.8761 112.668 33.0663 112.889 33.2015C113.114 33.332 113.367 33.3972 113.648 33.3972ZM118.763 29.7084C119.261 29.7084 119.654 29.8601 119.944 30.1616C120.24 30.4585 120.388 30.8942 120.388 31.4669V33.8504H119.854V31.522C119.854 31.0946 119.751 30.7683 119.546 30.5449C119.341 30.3206 119.047 30.2085 118.666 30.2085C118.239 30.2085 117.901 30.3418 117.65 30.6074C117.405 30.8676 117.281 31.2297 117.281 31.6939V33.8504H116.747V29.7397H117.259V30.498C117.405 30.248 117.605 30.055 117.861 29.9189C118.122 29.7792 118.422 29.7084 118.763 29.7084ZM121.839 29.7397H122.373V33.8504H121.839V29.7397ZM122.11 28.8416C122.058 28.8426 122.006 28.8327 121.958 28.8124C121.91 28.7921 121.867 28.762 121.832 28.7239C121.795 28.6869 121.766 28.643 121.747 28.5947C121.727 28.5464 121.718 28.4947 121.719 28.4427C121.719 28.3388 121.756 28.2478 121.832 28.1696C121.867 28.1316 121.91 28.1015 121.958 28.0812C122.006 28.0609 122.058 28.051 122.11 28.052C122.162 28.0507 122.214 28.0605 122.261 28.0806C122.309 28.1008 122.352 28.1308 122.388 28.1687C122.463 28.2423 122.501 28.3305 122.501 28.4353C122.501 28.5493 122.463 28.6467 122.388 28.7239C122.352 28.7621 122.309 28.7922 122.262 28.8125C122.214 28.8328 122.162 28.8427 122.11 28.8416ZM125.943 33.6004C125.835 33.6989 125.707 33.7735 125.567 33.8192C125.419 33.8666 125.264 33.8905 125.109 33.89C124.737 33.89 124.451 33.7852 124.25 33.5774C124.05 33.3688 123.95 33.0746 123.95 32.694V30.2085H123.243V29.7397H123.95V28.8416H124.484V29.7397H125.688V30.2085H124.484V32.6628C124.484 32.9073 124.541 33.0948 124.656 33.2254C124.777 33.3504 124.948 33.4129 125.168 33.4129C125.383 33.4129 125.59 33.3382 125.755 33.2015L125.943 33.6004ZM128.394 33.889C128.033 33.8945 127.677 33.8031 127.363 33.6243C127.059 33.4438 126.81 33.1846 126.641 32.8742C126.462 32.5431 126.371 32.1715 126.377 31.795C126.377 31.3943 126.465 31.0349 126.641 30.7168C126.817 30.3988 127.057 30.1515 127.363 29.9741C127.676 29.795 128.033 29.7032 128.394 29.7084C128.774 29.7084 129.118 29.7976 129.424 29.975C129.73 30.1515 129.969 30.3988 130.139 30.7168C130.314 31.0349 130.402 31.3943 130.402 31.795C130.402 32.1967 130.314 32.5562 130.139 32.8733C129.975 33.185 129.727 33.445 129.424 33.6243C129.118 33.8008 128.774 33.89 128.394 33.89V33.889ZM128.394 33.3972C128.674 33.3972 128.925 33.3329 129.146 33.2024C129.372 33.0663 129.548 32.8761 129.673 32.6315C129.798 32.387 129.861 32.1076 129.861 31.795C129.861 31.4825 129.798 31.204 129.673 30.9586C129.556 30.7235 129.373 30.5281 129.146 30.3969C128.919 30.2595 128.659 30.1888 128.394 30.1928C128.113 30.1928 127.86 30.2609 127.634 30.396C127.413 30.5265 127.238 30.714 127.107 30.9595C126.982 31.204 126.919 31.4834 126.919 31.796C126.919 32.1085 126.982 32.387 127.107 32.6315C127.238 32.8761 127.413 33.0663 127.634 33.2015C127.86 33.332 128.113 33.3972 128.394 33.3972ZM132.005 30.5449C132.13 30.2691 132.315 30.0605 132.561 29.9198C132.812 29.7792 133.121 29.7084 133.486 29.7084V30.248L133.359 30.2397C132.942 30.2397 132.616 30.373 132.381 30.6387C132.145 30.9052 132.027 31.2766 132.027 31.7564V33.8504H131.493V29.7397H132.005V30.5449ZM134.453 29.7397H134.987V33.8504H134.453V29.7397ZM134.725 28.8416C134.673 28.8426 134.621 28.8327 134.573 28.8124C134.525 28.7921 134.482 28.762 134.446 28.7239C134.409 28.6869 134.381 28.643 134.361 28.5947C134.342 28.5464 134.332 28.4947 134.333 28.4427C134.333 28.3388 134.371 28.2478 134.446 28.1696C134.482 28.1316 134.525 28.1015 134.573 28.0812C134.621 28.0609 134.673 28.051 134.725 28.052C134.835 28.052 134.928 28.0906 135.003 28.1687C135.078 28.2423 135.115 28.3305 135.115 28.4353C135.115 28.5493 135.078 28.6467 135.003 28.7239C134.968 28.762 134.924 28.7921 134.876 28.8124C134.828 28.8327 134.777 28.8426 134.725 28.8416ZM138.491 29.7084C138.987 29.7084 139.38 29.8601 139.672 30.1616C139.968 30.4585 140.116 30.8942 140.116 31.4669V33.8504H139.581V31.522C139.581 31.0946 139.479 30.7683 139.273 30.5449C139.067 30.3206 138.774 30.2085 138.392 30.2085C137.966 30.2085 137.627 30.3418 137.377 30.6074C137.131 30.8676 137.008 31.2297 137.008 31.6939V33.8504H136.474V29.7397H136.986V30.498C137.131 30.248 137.332 30.055 137.588 29.9189C137.848 29.7792 138.15 29.7084 138.491 29.7084ZM145.244 29.7397V33.3504C145.244 34.049 145.079 34.5637 144.748 34.8974C144.421 35.2366 143.928 35.4057 143.265 35.4057C142.899 35.4057 142.551 35.3488 142.22 35.2339C141.923 35.1413 141.65 34.9837 141.422 34.7724L141.693 34.3505C141.883 34.5279 142.114 34.6658 142.385 34.7641C142.661 34.8643 142.95 34.913 143.25 34.913C143.752 34.913 144.121 34.7908 144.356 34.5454C144.592 34.3064 144.71 33.9313 144.71 33.4212V32.8972C144.551 33.1517 144.324 33.3572 144.056 33.491C143.78 33.6288 143.476 33.6984 143.168 33.6942C142.796 33.6942 142.458 33.6114 142.152 33.4441C141.854 33.2755 141.608 33.0301 141.438 32.7336C141.264 32.415 141.175 32.0568 141.181 31.6939C141.181 31.3079 141.267 30.9641 141.438 30.6617C141.613 30.3601 141.851 30.1257 142.152 29.9584C142.463 29.7892 142.813 29.7031 143.168 29.7084C143.504 29.7084 143.807 29.7792 144.078 29.9198C144.349 30.0605 144.567 30.2636 144.732 30.5293V29.7397H145.244ZM143.22 33.2024C143.506 33.2024 143.764 33.1389 143.995 33.0139C144.226 32.8843 144.404 32.7042 144.529 32.4753C144.66 32.2455 144.725 31.9853 144.725 31.6939C144.725 31.4016 144.66 31.1442 144.529 30.92C144.407 30.6941 144.221 30.5093 143.995 30.3886C143.759 30.2554 143.491 30.1878 143.22 30.1928C142.95 30.1889 142.683 30.2535 142.445 30.3804C142.221 30.5044 142.036 30.6888 141.911 30.9126C141.786 31.1415 141.724 31.4016 141.724 31.6939C141.724 31.9853 141.786 32.2455 141.911 32.4753C142.042 32.7051 142.22 32.8843 142.445 33.0149C142.676 33.1399 142.934 33.2024 143.22 33.2024Z" fill="white"/>
<path fill-rule="evenodd" clip-rule="evenodd" d="M144.362 6.30774L140.041 13.3729L135.722 6.30774H132.084V22.2103H135.722V12.9629L139.837 19.71H140.246L144.362 12.9629V22.2084L148 18.6915V6.30774H144.362ZM123.675 15.8952H129.359V12.4417H123.675V9.80537H129.928V6.30682H120.036V22.2093H130.041V18.7108H123.675V15.8934V15.8952ZM106.626 9.80537H110.717V22.2084H114.357V9.80629H118.449V6.30774H106.626V9.80629V9.80537ZM98.3538 18.9829C95.7625 18.9829 93.7154 17.0985 93.7154 14.2581C93.7154 11.4186 95.7625 9.53328 98.3538 9.53328C100.946 9.53328 102.992 11.4186 102.992 14.2581C102.992 17.0985 100.946 18.9829 98.3538 18.9829ZM98.3538 5.98877C93.7844 5.98877 90.0781 9.57832 90.0781 14.2581C90.0781 18.9378 93.7844 22.5265 98.3538 22.5265C102.925 22.5265 106.63 18.9378 106.63 14.2581C106.63 9.57832 102.925 5.98877 98.3538 5.98877ZM90.0808 6.30682H78.2578V9.80537H82.3511V22.2084H85.9885V9.80629H90.0808V6.30774V6.30682ZM72.896 18.8018H69.8479V15.7592H72.8951C73.8042 15.7592 74.3953 16.3934 74.3953 17.2805C74.3953 18.1666 73.8042 18.8018 72.8951 18.8018H72.896ZM69.8488 9.71529H72.441C73.2821 9.71529 73.8281 10.3063 73.8281 11.1235C73.8281 11.9416 73.26 12.5327 72.441 12.5327H69.8488V9.71529ZM76.0793 13.9639C76.9433 13.2138 77.4664 12.1687 77.4664 10.8514C77.4664 8.10298 75.2143 6.30774 72.441 6.30774H66.2114V22.2103H72.896C75.7382 22.2103 78.0344 20.3691 78.0344 17.5526C78.0344 15.9402 77.2614 14.7131 76.0793 13.9639ZM57.8024 15.8943H63.4869V12.4417H57.8024V9.80537H64.0549V6.30682H54.1641V22.2093H64.1671V18.7108H57.8015V15.8934L57.8024 15.8943ZM46.0088 17.4386L42.9386 6.30774H39.9833L36.9131 17.4395L34.1628 6.30774H30.3425L34.7309 22.2103H38.8692L41.4614 12.8278L44.0536 22.2093H48.192L52.5794 6.30774H48.76L46.0079 17.4395L46.0088 17.4386Z" fill="white"/>
<path fill-rule="evenodd" clip-rule="evenodd" d="M6.92541 1.89635H13.2763V0H6.92541V1.89635ZM6.92541 4.89853H13.2763V3.03343H6.92541V4.89853ZM18.2052 21.7138L11.5463 28.4637L13.4951 30.4391L18.2052 25.6619V21.7138ZM18.2052 16.1323L13.5291 20.1282V23.4925L18.2052 18.7512V16.1314V16.1323ZM13.5291 13.291V17.262C14.8279 15.9687 17.8476 13.962 17.8476 13.962L18.0434 13.7993L13.5291 13.291ZM18.2052 8.15257H2.00114V11.7816L6.70387 11.2522V11.2503H8.72616V25.6058L10.0866 26.9846L11.5068 25.5433V11.2485H13.5291V11.2522L18.2052 11.7789V8.15348V8.15257ZM6.70387 17.1664V13.2901L2.11237 13.8085L2.39733 13.9078C2.39733 13.9078 5.3756 15.8713 6.70387 17.1664ZM2.00114 18.7861L6.70387 23.555V20.0362L2.00114 16.0487V18.7861ZM2.00114 25.694L6.67998 30.4372L8.62596 28.4637L2.00114 21.7478V25.695V25.694ZM20.2311 19.6603L20.2274 19.663V26.5112H20.1723L20.2302 26.571L13.5272 33.3677L13.4353 33.2758L13.4022 33.3079L10.0866 29.9454L6.71031 33.3677L6.62023 33.2767L6.58989 33.3089L0.000919592 26.6271L0.120418 26.5057H0.0055158V19.7237L0 19.7191L0.0055158 19.7127V14.0457H0V12.005H0.0055158V6.13028H20.2284V19.6548L20.2302 19.6594L20.2311 19.6603Z" fill="white"/>
</svg>
