<svg width="180" height="31" viewBox="0 0 180 31" fill="none" xmlns="http://www.w3.org/2000/svg">
<path fill-rule="evenodd" clip-rule="evenodd" d="M6.16166 1.64813H11.8122V0H6.16166V1.64813ZM6.16166 4.25733H11.8122V2.63636H6.16166V4.25733ZM16.1975 18.8716L10.273 24.7379L12.0068 26.4547L16.1975 22.3028V18.8716V18.8716ZM16.1975 14.0207L12.0371 17.4935V20.4174L16.1975 16.2967V14.0199V14.0207ZM12.0371 11.5513V15.0025C13.1927 13.8785 15.8793 12.1345 15.8793 12.1345L16.0535 11.9931L12.0371 11.5513V11.5513ZM16.1975 7.08543H1.78045V10.2395L5.96456 9.77931V9.77771H7.76383V22.2541L8.97424 23.4525L10.2378 22.1998V9.77612H12.0371V9.77931L16.1975 10.2371V7.08623V7.08543ZM5.96456 14.9194V11.5505L1.87941 12.001L2.13295 12.0873C2.13295 12.0873 4.78277 13.7938 5.96456 14.9194ZM1.78045 16.3271L5.96456 20.4718V17.4136L1.78045 13.948V16.3271ZM1.78045 22.3308L5.9433 26.4531L7.67468 24.7379L1.78045 18.9011V22.3316V22.3308ZM18 17.0868L17.9967 17.0892V23.041H17.9477L17.9992 23.0929L12.0354 29L11.9537 28.9201L11.9242 28.9481L8.97424 26.0257L5.97029 29L5.89014 28.9209L5.86315 28.9489L0.000818178 23.1417L0.107138 23.0362H0.00490751V17.142L0 17.138L0.00490751 17.1324V12.2072H0V10.4336H0.00490751V5.32785H17.9975V17.082L17.9992 17.086L18 17.0868Z" fill="white"/>
<path d="M37.81 22.4017L35.5023 29.0961H34.7386L32.7344 23.3872L30.7194 29.0961H29.9664L27.6575 22.4029H28.4008L30.3764 28.1591L32.42 22.4017H33.0965L35.1114 28.1883L37.1157 22.4017H37.81V22.4017ZM43.0793 26.7923H38.7757C38.8139 27.3143 39.0195 27.7383 39.3912 28.0635C39.7629 28.3818 40.2325 28.5415 40.8002 28.5415C41.1193 28.5415 41.4133 28.4875 41.6798 28.3796C41.9482 28.2642 42.1858 28.0939 42.3754 27.8812L42.7662 28.3222C42.5379 28.5899 42.2511 28.7935 41.9057 28.9341C41.5506 29.0774 41.1675 29.149 40.7811 29.1445C40.2529 29.1445 39.7832 29.0354 39.3721 28.8183C38.9725 28.5998 38.6443 28.2823 38.4231 27.9003C38.1908 27.4954 38.0731 27.041 38.0813 26.5808C38.0813 26.0903 38.1889 25.6505 38.404 25.2613C38.6251 24.872 38.9251 24.5694 39.3039 24.3523C39.6888 24.1364 40.119 24.0272 40.5947 24.0272C41.0703 24.0272 41.4982 24.1364 41.8758 24.3535C42.2547 24.5694 42.5511 24.872 42.7662 25.2613C42.9813 25.6437 43.0889 26.0836 43.0889 26.5808L43.0793 26.7912V26.7923ZM40.5947 24.6099C40.3631 24.6048 40.1328 24.6437 39.9176 24.7243C39.7024 24.8049 39.5067 24.9255 39.3422 25.079C39.0099 25.3861 38.8211 25.7877 38.7757 26.2849H42.4244C42.3778 25.7877 42.1854 25.385 41.8472 25.079C41.5137 24.7674 41.0966 24.6111 40.5947 24.6111V24.6099ZM47.1535 24.0272C47.6363 24.0272 48.0737 24.1364 48.4645 24.3535C48.8553 24.5627 49.1613 24.863 49.3836 25.2523C49.6047 25.6404 49.7158 26.0847 49.7158 26.5808C49.7158 27.078 49.6047 27.5212 49.3836 27.9105C49.1731 28.2884 48.8543 28.6033 48.4634 28.8194C48.0725 29.0354 47.6363 29.1445 47.1535 29.1445C46.7233 29.1445 46.3348 29.0545 45.9894 28.8768C45.6454 28.6938 45.3611 28.4258 45.1672 28.1017V29.0961H44.5027V22.0001H45.1971V25.0228C45.4122 24.6966 45.6871 24.4513 46.0181 24.286C46.3575 24.1139 46.7352 24.0272 47.1535 24.0272V24.0272ZM47.1045 28.5415C47.463 28.5415 47.7893 28.4628 48.0821 28.3031C48.3761 28.1366 48.6044 27.9037 48.7669 27.6045C48.9366 27.3053 49.0215 26.9633 49.0215 26.5808C49.0215 26.1983 48.9378 25.8575 48.7669 25.5571C48.6153 25.2697 48.3772 25.0306 48.0821 24.8698C47.787 24.7032 47.4486 24.6168 47.1045 24.6201C46.7388 24.6201 46.4101 24.7033 46.1161 24.8687C45.8293 25.0284 45.6022 25.2579 45.4313 25.5583C45.2688 25.8575 45.1875 26.1995 45.1875 26.5819C45.1875 26.9644 45.2688 27.3053 45.4313 27.6045C45.601 27.9037 45.8293 28.1366 46.1161 28.3019C46.4101 28.4617 46.7388 28.5415 47.1045 28.5415V28.5415ZM52.5112 29.1434C52.0929 29.1434 51.6926 29.0871 51.3077 28.9724C50.9301 28.8509 50.6325 28.7013 50.4174 28.5224L50.7305 27.987C50.9456 28.1523 51.2169 28.2907 51.5432 28.3987C51.8683 28.4999 52.2077 28.5517 52.559 28.5517C53.0299 28.5517 53.3753 28.4808 53.5964 28.3413C53.7049 28.276 53.7936 28.1852 53.8537 28.0779C53.9138 27.9707 53.9434 27.8506 53.9394 27.7293C53.9442 27.649 53.93 27.5687 53.8978 27.4941C53.8655 27.4196 53.8161 27.3528 53.753 27.2985C53.6189 27.1846 53.4579 27.1025 53.2833 27.0589C53.0364 26.9891 52.7849 26.9349 52.5304 26.8969C52.1902 26.8382 51.8539 26.7616 51.5229 26.6674C51.2705 26.5855 51.0449 26.4437 50.8679 26.2557C50.6911 26.0645 50.6038 25.8001 50.6038 25.4626C50.6038 25.0408 50.7831 24.6977 51.1416 24.4288C51.5002 24.1611 51.9985 24.0272 52.6379 24.0272C52.9702 24.0272 53.3036 24.0722 53.6358 24.1622C53.9681 24.2443 54.2418 24.3557 54.4581 24.4963L54.1545 25.0408C53.7302 24.7539 53.2247 24.6111 52.6379 24.6111C52.1957 24.6111 51.8587 24.6876 51.6304 24.8406C51.5261 24.9071 51.4412 24.9971 51.3831 25.1024C51.3251 25.2077 51.2959 25.3249 51.2982 25.4435C51.2982 25.6347 51.3603 25.7877 51.4834 25.9025C51.6149 26.0172 51.7738 26.1027 51.9627 26.1612C52.1527 26.2107 52.4132 26.2658 52.7455 26.3232C53.1566 26.3997 53.4864 26.4762 53.7338 26.5527C53.9812 26.6292 54.194 26.7597 54.3696 26.9442C54.5453 27.1298 54.6326 27.384 54.6326 27.7091C54.6326 28.1501 54.4449 28.4999 54.0661 28.762C53.6956 29.0163 53.1757 29.1445 52.5112 29.1445V29.1434ZM55.9173 24.0655H56.6117V29.0961H55.9185V24.0655H55.9173ZM56.2699 22.9664C56.2022 22.9678 56.1349 22.9556 56.0725 22.9308C56.0101 22.906 55.954 22.8691 55.9078 22.8224C55.8601 22.7772 55.8226 22.7234 55.7973 22.6643C55.7721 22.6052 55.7597 22.5419 55.7608 22.4782C55.7608 22.3511 55.8098 22.2397 55.9078 22.1441C55.954 22.0976 56.0102 22.0607 56.0726 22.0359C56.1349 22.0111 56.2022 21.9989 56.2699 22.0001C56.4133 22.0001 56.5328 22.0474 56.632 22.143C56.7288 22.233 56.7778 22.341 56.7778 22.4692C56.7778 22.6087 56.73 22.728 56.632 22.8224C56.5858 22.8691 56.5297 22.906 56.4673 22.9308C56.4049 22.9556 56.3376 22.9678 56.2699 22.9664V22.9664ZM61.2535 28.7901C61.1233 28.9049 60.9607 28.9938 60.7636 29.0579C60.5712 29.1158 60.3704 29.1451 60.1684 29.1445C59.6855 29.1445 59.3139 29.0163 59.0533 28.762C58.7916 28.5067 58.6613 28.1467 58.6613 27.681V24.6392H57.7411V24.0655H58.6613V22.9664H59.3557V24.0655H60.9213V24.6392H59.3557V27.6427C59.3557 27.942 59.431 28.1714 59.5816 28.3312C59.7369 28.4842 59.9592 28.5607 60.2461 28.5607C60.5249 28.5611 60.7951 28.4696 61.0097 28.3019L61.2535 28.7901V28.7901ZM66.8168 26.7923H62.512C62.5514 27.3143 62.757 27.7383 63.1287 28.0635C63.5004 28.3818 63.9701 28.5415 64.5377 28.5415C64.8568 28.5415 65.1508 28.4875 65.4174 28.3796C65.6853 28.264 65.9225 28.0938 66.1117 27.8812L66.5037 28.3222C66.2754 28.5899 65.9886 28.7935 65.6432 28.9341C65.2877 29.0776 64.9042 29.1492 64.5174 29.1445C63.9892 29.1445 63.5195 29.0354 63.1096 28.8183C62.71 28.5998 62.3818 28.2823 62.1606 27.9003C61.9279 27.4955 61.8098 27.0411 61.8176 26.5808C61.8176 26.0903 61.9252 25.6505 62.1403 25.2613C62.3626 24.872 62.6626 24.5694 63.0403 24.3523C63.4251 24.1364 63.8553 24.0272 64.331 24.0272C64.8078 24.0272 65.2345 24.1364 65.6134 24.3535C65.991 24.5694 66.2886 24.872 66.5037 25.2613C66.7188 25.6437 66.8264 26.0836 66.8264 26.5808L66.8168 26.7912V26.7923ZM64.331 24.6099C64.0996 24.6049 63.8696 24.6439 63.6546 24.7245C63.4396 24.8051 63.244 24.9257 63.0797 25.079C62.7474 25.3861 62.5586 25.7877 62.512 26.2849H66.1607C66.1153 25.7877 65.9229 25.385 65.5835 25.079C65.2512 24.7674 64.8341 24.6111 64.3322 24.6111L64.331 24.6099ZM72.8343 29.1546C72.3252 29.1546 71.8363 29.0736 71.3667 28.915C70.9042 28.7553 70.5456 28.5438 70.2911 28.2839L70.5743 27.7384C70.8229 27.9802 71.1515 28.1782 71.5627 28.3312C71.9738 28.4774 72.3969 28.5517 72.8343 28.5517C73.4474 28.5517 73.9075 28.4425 74.2135 28.2254C74.3582 28.1275 74.4756 27.9981 74.5557 27.8483C74.6358 27.6985 74.6763 27.5326 74.6736 27.3649C74.6736 27.0971 74.5887 26.8845 74.419 26.7237C74.2489 26.5606 74.0412 26.4366 73.8119 26.3614C73.4825 26.2468 73.1461 26.151 72.8044 26.0746C72.3869 25.976 71.9759 25.8547 71.5734 25.7112C71.2671 25.5905 70.9952 25.4036 70.7799 25.1657C70.5647 24.9238 70.4572 24.5953 70.4572 24.1802C70.4572 23.8427 70.5492 23.5368 70.7321 23.2623C70.9137 22.9811 71.1946 22.7594 71.5722 22.593C71.9511 22.4276 72.4208 22.3455 72.9813 22.3455C73.3721 22.3455 73.7533 22.3984 74.125 22.5075C74.5039 22.6087 74.8301 22.7527 75.1038 22.9372L74.8588 23.5019C74.5774 23.3193 74.2667 23.1803 73.9386 23.0902C73.629 22.9973 73.3062 22.9491 72.9813 22.9473C72.3813 22.9473 71.9272 23.0621 71.6212 23.2915C71.4783 23.3924 71.3629 23.5239 71.2848 23.6751C71.2066 23.8264 71.1679 23.993 71.1719 24.1611C71.1719 24.4288 71.2531 24.6459 71.4157 24.8113C71.5854 24.971 71.7945 25.0959 72.0419 25.1848C72.2965 25.268 72.6347 25.3603 73.059 25.4626C73.5609 25.583 73.9661 25.7045 74.272 25.826C74.5851 25.9407 74.8493 26.1185 75.0644 26.3614C75.2795 26.5977 75.3871 26.9194 75.3871 27.3266C75.3871 27.6641 75.2926 27.9746 75.1038 28.2547C74.921 28.5292 74.6377 28.7497 74.2529 28.915C73.8681 29.0736 73.3948 29.1535 72.8343 29.1535V29.1546ZM81.2969 26.7923H76.9945C77.0327 27.3143 77.2383 27.7383 77.61 28.0635C77.9805 28.3818 78.4513 28.5415 79.0178 28.5415C79.3381 28.5415 79.6309 28.4875 79.8986 28.3796C80.1665 28.264 80.4037 28.0938 80.593 27.8812L80.985 28.3222C80.7555 28.5899 80.4699 28.7935 80.1245 28.9341C79.769 29.0775 79.3855 29.1492 78.9987 29.1445C78.4705 29.1445 78.0008 29.0354 77.5909 28.8183C77.1913 28.5998 76.8631 28.2823 76.6419 27.9003C76.4092 27.4955 76.2911 27.0411 76.2989 26.5808C76.2989 26.0903 76.4065 25.6505 76.6216 25.2613C76.8439 24.872 77.1439 24.5694 77.5215 24.3523C77.9064 24.1364 78.3366 24.0272 78.8123 24.0272C79.2891 24.0272 79.7158 24.1364 80.0946 24.3535C80.4723 24.5694 80.7687 24.872 80.985 25.2613C81.2001 25.6437 81.3077 26.0836 81.3077 26.5808L81.2969 26.7912V26.7923ZM78.8135 24.6099C78.5819 24.6048 78.3516 24.6437 78.1364 24.7243C77.9212 24.8049 77.7255 24.9255 77.561 25.079C77.2287 25.3861 77.0387 25.7877 76.9933 26.2849H80.642C80.5966 25.7877 80.403 25.385 80.0648 25.079C79.7325 24.7674 79.3154 24.6111 78.8135 24.6111V24.6099ZM84.8536 29.1434C84.3445 29.1434 83.888 29.0354 83.484 28.8194C83.0875 28.6041 82.7624 28.2894 82.5446 27.9105C82.313 27.5016 82.1954 27.0441 82.2028 26.5808C82.2028 26.0903 82.3164 25.6505 82.5446 25.2613C82.7729 24.872 83.086 24.5694 83.484 24.3523C83.888 24.1364 84.3445 24.0272 84.8536 24.0272C85.2958 24.0272 85.6902 24.1139 86.0368 24.286C86.3882 24.4513 86.6654 24.6966 86.8686 25.0228L86.3499 25.367C86.1936 25.1291 85.9702 24.9367 85.7045 24.8113C85.4417 24.6833 85.1496 24.6177 84.8536 24.6201C84.4819 24.6201 84.1461 24.7033 83.8461 24.8687C83.5521 25.0284 83.3203 25.2579 83.1518 25.5583C82.988 25.8575 82.9068 26.1995 82.9068 26.5819C82.9068 26.97 82.988 27.3143 83.1518 27.6135C83.3203 27.9071 83.5521 28.1366 83.8449 28.3031C84.1461 28.4617 84.4819 28.5415 84.8536 28.5415C85.1596 28.5415 85.4428 28.4808 85.7045 28.3604C85.9651 28.2389 86.1802 28.0533 86.3499 27.8047L86.8686 28.1501C86.6654 28.4752 86.3882 28.7238 86.0368 28.8959C85.6685 29.0647 85.2632 29.1495 84.8536 29.1434V29.1434ZM92.8693 24.0655V29.0961H92.2036V28.1782C92.0277 28.4782 91.7672 28.7266 91.4507 28.8959C91.1139 29.0653 90.7366 29.1505 90.3548 29.1434C89.6831 29.1434 89.1525 28.9634 88.7605 28.5989C88.3756 28.2288 88.1832 27.69 88.1832 26.9824V24.0655H88.8776V26.916C88.8776 27.4447 89.0115 27.8463 89.2792 28.1208C89.5469 28.3953 89.9281 28.5325 90.4229 28.5325C90.9643 28.5325 91.3909 28.3728 91.7053 28.0545C92.0172 27.7282 92.1737 27.2783 92.1737 26.7045V24.0655H92.8693V24.0655ZM95.4794 25.0509C95.642 24.7134 95.8834 24.4581 96.2025 24.286C96.5288 24.1139 96.9303 24.0272 97.406 24.0272V24.6876L97.2399 24.6774C96.6985 24.6774 96.2742 24.8406 95.9683 25.1657C95.6611 25.4919 95.5081 25.9463 95.5081 26.5336V29.0961H94.8138V24.0655H95.4794V25.0509V25.0509ZM98.6633 24.0655H99.3576V29.0961H98.6633V24.0655ZM99.0158 22.9664C98.9481 22.9677 98.8809 22.9555 98.8185 22.9307C98.7561 22.9059 98.6999 22.869 98.6537 22.8224C98.6061 22.7772 98.5685 22.7234 98.5433 22.6643C98.518 22.6052 98.5056 22.5419 98.5067 22.4782C98.5067 22.3511 98.5557 22.2397 98.6537 22.1441C98.6999 22.0976 98.7561 22.0607 98.8185 22.0359C98.8809 22.0111 98.9481 21.9989 99.0158 22.0001C99.1592 22.0001 99.2799 22.0474 99.3779 22.143C99.425 22.1849 99.4622 22.2355 99.4873 22.2917C99.5124 22.3478 99.5248 22.4083 99.5237 22.4692C99.5237 22.6087 99.4747 22.728 99.3779 22.8224C99.3317 22.869 99.2755 22.9059 99.2131 22.9307C99.1508 22.9555 99.0835 22.9677 99.0158 22.9664V22.9664ZM103.999 28.7901C103.859 28.9109 103.692 29.0022 103.511 29.0579C103.318 29.1159 103.117 29.1452 102.914 29.1445C102.431 29.1445 102.06 29.0163 101.799 28.762C101.538 28.5067 101.407 28.1467 101.407 27.681V24.6392H100.488V24.0655H101.407V22.9664H102.102V24.0655H103.667V24.6392H102.102V27.6427C102.102 27.942 102.177 28.1714 102.328 28.3312C102.484 28.4842 102.705 28.5607 102.992 28.5607C103.271 28.561 103.541 28.4695 103.756 28.3019L103.999 28.7901V28.7901ZM109.492 24.0655L106.919 29.6991C106.71 30.1716 106.47 30.5057 106.195 30.7025C105.911 30.9036 105.563 31.0082 105.208 30.9995C104.959 30.9995 104.728 30.9612 104.513 30.8848C104.302 30.8108 104.112 30.6932 103.955 30.5405L104.278 30.0343C104.54 30.2885 104.852 30.4168 105.217 30.4168C105.434 30.4226 105.646 30.3547 105.814 30.2255C105.983 30.0973 106.14 29.8802 106.283 29.5742L106.508 29.0871L104.21 24.0655H104.934L106.87 28.3402L108.807 24.0655H109.492V24.0655ZM118.077 29.2019L117.128 28.2457C116.548 28.8509 115.785 29.1535 114.839 29.1535C114.396 29.1535 113.998 29.0838 113.647 28.9431C113.324 28.814 113.043 28.6063 112.834 28.3413C112.639 28.0811 112.537 27.7697 112.541 27.4515C112.541 27.0499 112.671 26.6899 112.932 26.3716C113.192 26.0521 113.636 25.7169 114.262 25.367C113.936 25.0352 113.711 24.7551 113.588 24.5244C113.465 24.293 113.401 24.0375 113.402 23.7786C113.402 23.3512 113.558 23.0069 113.871 22.7459C114.184 22.485 114.605 22.3545 115.133 22.3545C115.622 22.3545 116.01 22.4715 116.297 22.7077C116.584 22.9439 116.728 23.269 116.728 23.683C116.728 24.0149 116.613 24.3141 116.385 24.5829C116.156 24.8439 115.762 25.1342 115.201 25.4525L117.079 27.3458C117.303 26.9409 117.458 26.5055 117.539 26.0555L118.107 26.2276C117.982 26.826 117.78 27.3401 117.5 27.7665L118.478 28.7519L118.077 29.2019V29.2019ZM115.133 22.8607C114.794 22.8607 114.526 22.9439 114.331 23.1093C114.236 23.1937 114.162 23.2963 114.113 23.4103C114.064 23.5242 114.041 23.6468 114.047 23.7696C114.047 23.9665 114.099 24.1555 114.203 24.3332C114.307 24.5132 114.513 24.7551 114.82 25.061C115.315 24.7798 115.658 24.5413 115.847 24.3433C116.026 24.1685 116.127 23.9359 116.13 23.6931C116.13 23.4378 116.043 23.2364 115.866 23.0902C115.69 22.9372 115.446 22.8607 115.133 22.8607V22.8607ZM114.879 28.5899C115.635 28.5899 116.248 28.3379 116.718 27.834L114.654 25.7585C114.113 26.0588 113.737 26.3288 113.528 26.5718C113.331 26.8017 113.224 27.0886 113.226 27.384C113.226 27.7473 113.375 28.041 113.675 28.2637C113.982 28.4808 114.383 28.5899 114.879 28.5899V28.5899ZM129.391 22.4017V29.0961H128.697V23.7415L126.006 28.2446H125.665L122.974 23.7696V29.0961H122.28V22.4029H122.876L125.85 27.3649L128.795 22.4017H129.391ZM133.578 29.1434C133.083 29.1434 132.636 29.0354 132.238 28.8194C131.842 28.5989 131.518 28.2817 131.298 27.9015C131.066 27.4962 130.948 27.0413 130.957 26.5808C130.957 26.0903 131.07 25.6505 131.298 25.2613C131.516 24.8823 131.841 24.5677 132.238 24.3523C132.636 24.1364 133.083 24.0272 133.578 24.0272C134.047 24.0212 134.511 24.1339 134.918 24.3535C135.316 24.5694 135.626 24.872 135.847 25.2613C136.075 25.6505 136.19 26.0903 136.19 26.5808C136.19 27.0724 136.075 27.5122 135.847 27.9003C135.634 28.2818 135.313 28.6 134.918 28.8194C134.51 29.0386 134.047 29.1509 133.578 29.1445V29.1434ZM133.578 28.5415C133.943 28.5415 134.27 28.4628 134.556 28.3031C134.849 28.1366 135.077 27.9037 135.241 27.6045C135.404 27.3053 135.485 26.9633 135.485 26.5808C135.485 26.1983 135.404 25.8575 135.241 25.5571C135.089 25.2699 134.851 25.031 134.556 24.8698C134.262 24.7015 133.922 24.615 133.578 24.6201C133.213 24.6201 132.883 24.7033 132.59 24.8687C132.304 25.0284 132.075 25.2579 131.906 25.5583C131.738 25.8759 131.654 26.2271 131.661 26.5819C131.661 26.9644 131.742 27.3053 131.906 27.6045C132.075 27.9037 132.304 28.1366 132.59 28.3019C132.883 28.4617 133.213 28.5415 133.578 28.5415V28.5415ZM140.228 24.0272C140.875 24.0272 141.386 24.2128 141.764 24.5818C142.149 24.9452 142.341 25.4784 142.341 26.1792V29.0961H141.647V26.2467C141.647 25.7236 141.513 25.3243 141.247 25.0509C140.979 24.7764 140.598 24.6392 140.102 24.6392C139.547 24.6392 139.107 24.8023 138.781 25.1274C138.462 25.4458 138.302 25.889 138.302 26.4571V29.0961H137.608V24.0655H138.273V24.9935C138.462 24.6876 138.723 24.4513 139.055 24.2848C139.394 24.1139 139.785 24.0272 140.228 24.0272V24.0272ZM144.227 24.0655H144.922V29.0961H144.227V24.0655ZM144.58 22.9664C144.512 22.9677 144.445 22.9555 144.382 22.9307C144.32 22.9059 144.264 22.869 144.218 22.8224C144.17 22.7772 144.133 22.7234 144.107 22.6643C144.082 22.6052 144.07 22.5419 144.071 22.4782C144.071 22.3511 144.12 22.2397 144.218 22.1441C144.264 22.0976 144.32 22.0607 144.382 22.0359C144.445 22.0111 144.512 21.9989 144.58 22.0001C144.647 21.9986 144.714 22.0106 144.777 22.0352C144.839 22.0598 144.895 22.0965 144.941 22.143C145.039 22.233 145.088 22.341 145.088 22.4692C145.088 22.6087 145.039 22.728 144.941 22.8224C144.895 22.8691 144.839 22.906 144.777 22.9309C144.714 22.9557 144.647 22.9678 144.58 22.9664ZM149.564 28.7901C149.422 28.9107 149.256 29.002 149.075 29.0579C148.882 29.1159 148.681 29.1452 148.478 29.1445C147.996 29.1445 147.624 29.0163 147.362 28.762C147.102 28.5067 146.971 28.1467 146.971 27.681V24.6392H146.052V24.0655H146.971V22.9664H147.666V24.0655H149.231V24.6392H147.666V27.6427C147.666 27.942 147.741 28.1714 147.89 28.3312C148.047 28.4842 148.269 28.5607 148.556 28.5607C148.834 28.5607 149.104 28.4692 149.319 28.3019L149.564 28.7901ZM152.75 29.1434C152.28 29.1501 151.817 29.0382 151.409 28.8194C151.014 28.5985 150.69 28.2813 150.471 27.9015C150.238 27.4963 150.12 27.0414 150.128 26.5808C150.128 26.0903 150.242 25.6505 150.471 25.2613C150.699 24.872 151.012 24.5694 151.409 24.3523C151.817 24.1331 152.28 24.0209 152.75 24.0272C153.244 24.0272 153.691 24.1364 154.089 24.3535C154.487 24.5694 154.797 24.872 155.018 25.2613C155.246 25.6505 155.361 26.0903 155.361 26.5808C155.361 27.0724 155.246 27.5122 155.018 27.9003C154.805 28.2818 154.484 28.6 154.089 28.8194C153.691 29.0354 153.244 29.1445 152.75 29.1445V29.1434ZM152.75 28.5415C153.114 28.5415 153.44 28.4628 153.727 28.3031C154.021 28.1366 154.25 27.9037 154.412 27.6045C154.575 27.3053 154.657 26.9633 154.657 26.5808C154.657 26.1983 154.575 25.8575 154.412 25.5571C154.261 25.2694 154.023 25.0303 153.727 24.8698C153.433 24.7017 153.094 24.6151 152.75 24.6201C152.384 24.6201 152.055 24.7033 151.761 24.8687C151.474 25.0284 151.246 25.2579 151.077 25.5583C150.914 25.8575 150.832 26.1995 150.832 26.5819C150.832 26.9644 150.914 27.3053 151.077 27.6045C151.246 27.9037 151.474 28.1366 151.761 28.3019C152.055 28.4617 152.384 28.5415 152.75 28.5415V28.5415ZM157.444 25.0509C157.607 24.7134 157.848 24.4581 158.167 24.286C158.493 24.1139 158.895 24.0272 159.371 24.0272V24.6876L159.205 24.6774C158.663 24.6774 158.239 24.8406 157.933 25.1657C157.627 25.4919 157.473 25.9463 157.473 26.5336V29.0961H156.778V24.0655H157.444V25.0509ZM160.628 24.0655H161.322V29.0961H160.628V24.0655ZM160.981 22.9664C160.913 22.9677 160.846 22.9555 160.783 22.9307C160.721 22.9059 160.665 22.869 160.618 22.8224C160.571 22.7772 160.533 22.7234 160.508 22.6643C160.483 22.6052 160.47 22.5419 160.471 22.4782C160.471 22.3511 160.52 22.2397 160.618 22.1441C160.665 22.0976 160.721 22.0607 160.783 22.0359C160.846 22.0111 160.913 21.9989 160.981 22.0001C161.124 22.0001 161.245 22.0474 161.343 22.143C161.441 22.233 161.488 22.341 161.488 22.4692C161.488 22.6087 161.441 22.728 161.343 22.8224C161.296 22.869 161.24 22.9059 161.178 22.9307C161.115 22.9555 161.048 22.9677 160.981 22.9664V22.9664ZM165.877 24.0272C166.522 24.0272 167.034 24.2128 167.413 24.5818C167.797 24.9452 167.99 25.4784 167.99 26.1792V29.0961H167.294V26.2467C167.294 25.7236 167.162 25.3243 166.894 25.0509C166.626 24.7764 166.245 24.6392 165.749 24.6392C165.195 24.6392 164.755 24.8023 164.428 25.1274C164.109 25.4458 163.949 25.889 163.949 26.4571V29.0961H163.255V24.0655H163.921V24.9935C164.109 24.6876 164.37 24.4513 164.703 24.2848C165.042 24.1139 165.434 24.0272 165.877 24.0272V24.0272ZM174.657 24.0655V28.4842C174.657 29.3391 174.442 29.9691 174.012 30.3774C173.588 30.7925 172.946 30.9995 172.084 30.9995C171.609 30.9995 171.156 30.9297 170.726 30.7891C170.339 30.6759 169.985 30.483 169.688 30.2244L170.041 29.7081C170.288 29.9252 170.588 30.0939 170.941 30.2143C171.299 30.3369 171.674 30.3965 172.065 30.3965C172.718 30.3965 173.197 30.2469 173.503 29.9466C173.81 29.6541 173.963 29.1951 173.963 28.5708V27.9296C173.756 28.2411 173.462 28.4926 173.112 28.6563C172.754 28.8249 172.358 28.9101 171.958 28.9049C171.475 28.9049 171.035 28.8037 170.637 28.5989C170.25 28.3925 169.93 28.0922 169.708 27.7293C169.482 27.3395 169.368 26.9011 169.375 26.4571C169.375 25.9846 169.486 25.5639 169.708 25.1938C169.937 24.8248 170.246 24.538 170.637 24.3332C171.042 24.1261 171.497 24.0207 171.958 24.0272C172.395 24.0272 172.79 24.1139 173.141 24.286C173.493 24.4581 173.777 24.7067 173.992 25.0318V24.0655H174.657V24.0655ZM172.026 28.3031C172.398 28.3031 172.733 28.2254 173.033 28.0724C173.333 27.9138 173.565 27.6934 173.728 27.4132C173.897 27.132 173.982 26.8137 173.982 26.4571C173.982 26.0993 173.897 25.7844 173.728 25.5099C173.569 25.2335 173.328 25.0073 173.033 24.8597C172.726 24.6966 172.378 24.6139 172.026 24.6201C171.675 24.6153 171.328 24.6942 171.018 24.8496C170.727 25.0013 170.486 25.227 170.324 25.5009C170.161 25.781 170.08 26.0993 170.08 26.4571C170.08 26.8137 170.161 27.132 170.324 27.4132C170.494 27.6945 170.726 27.9138 171.018 28.0736C171.318 28.2266 171.654 28.3031 172.026 28.3031V28.3031Z" fill="white"/>
<path d="M35.5033 15.6712L38.0766 7.0137L40.6499 15.6712H44.9924L49.4728 0.328767H45.0614L42.557 9.99452L39.6849 0.328767H36.4453L33.5733 9.99452L31.0919 0.328767H26.6575L31.1608 15.6712H35.5033Z" fill="white"/>
<path d="M50.1129 0.328767V4.12055H54.0877V15.6712H58.2005V4.12055H62.1753V0.328767H50.1129Z" fill="white"/>
<path d="M71.7131 10.8055V7.34247H62.7524V10.8055H71.7131Z" fill="white"/>
<path d="M79.9669 16C81.805 16 83.2755 15.5836 84.4013 14.7288C85.5272 13.874 86.0786 12.7123 86.0786 11.2C86.0786 9.68767 85.5272 8.54795 84.4013 7.84658C83.8269 7.47397 83.3214 7.21096 82.839 7.0137C82.3565 6.81644 81.7361 6.61918 80.9549 6.4C78.7722 5.7863 78.1978 5.4137 78.1978 4.73425C78.1978 4.14247 78.7032 3.72603 79.6912 3.72603C80.863 3.72603 81.6901 4.29589 82.1956 5.43562L85.642 3.50685C84.5392 1.2274 82.3564 0 79.6682 0C78.0829 0 76.7503 0.438356 75.6704 1.31507C74.6135 2.19178 74.085 3.33151 74.085 4.75616C74.085 7.3863 75.9231 8.74521 78.8641 9.55617C79.898 9.8411 80.5873 10.0384 80.886 10.1479C81.5982 10.4329 81.9659 10.7836 81.9659 11.2438C81.9659 11.9233 81.3455 12.274 80.0818 12.274C78.5654 12.274 77.5085 11.5945 76.9111 10.2356L73.3958 12.1863C74.2918 14.5315 76.5665 16 79.9669 16Z" fill="white"/>
<path d="M91.9163 9.73151H97.4536V6.11507H91.9163V3.98904H98.028V0.328767H87.8036V15.6712H98.1428V11.989H91.9163V9.73151Z" fill="white"/>
<path d="M107.983 16C110.924 16 113.543 14.6192 114.945 12.3616L111.383 10.389C110.763 11.5068 109.476 12.1644 107.983 12.1644C106.696 12.1644 105.662 11.7918 104.858 11.0247C104.077 10.2575 103.686 9.24932 103.686 8C103.686 6.75069 104.077 5.76438 104.858 4.99726C105.662 4.23014 106.696 3.83562 107.983 3.83562C109.476 3.83562 110.763 4.51507 111.383 5.58904L114.945 3.63836C114.232 2.52055 113.267 1.64384 112.027 0.986302C110.786 0.328767 109.43 0 107.983 0C105.57 0 103.549 0.767124 101.963 2.30137C100.378 3.8137 99.5966 5.72055 99.5966 8C99.5966 10.2795 100.378 12.1863 101.963 13.7205C103.549 15.2329 105.57 16 107.983 16Z" fill="white"/>
<path d="M116.531 10.6301C116.531 12.2521 117.128 13.5452 118.3 14.5315C119.495 15.5178 121.034 16 122.895 16C124.756 16 126.296 15.5178 127.467 14.5315C128.662 13.5452 129.26 12.2521 129.26 10.6301V0.328767H125.147V10.2575C125.147 11.5507 124.389 12.1863 122.895 12.1863C121.402 12.1863 120.643 11.5507 120.643 10.2575V0.328767H116.531V10.6301Z" fill="white"/>
<path d="M144.663 15.6712L141.354 9.99452C143.031 9.09589 144.088 7.47397 144.088 5.63288C144.088 4.09863 143.537 2.8274 142.411 1.8411C141.308 0.832876 139.929 0.328767 138.298 0.328767H131.865V15.6712H135.978V10.7178H137.448L140.251 15.6712H144.663ZM138.252 3.94521C139.263 3.94521 139.975 4.64658 139.975 5.67671C139.975 6.70685 139.263 7.40822 138.252 7.3863H135.978V3.94521H138.252Z" fill="white"/>
<path d="M146.342 15.6712H150.455V0.328767H146.342V15.6712Z" fill="white"/>
<path d="M152.18 0.328767V4.12055H156.155V15.6712H160.267V4.12055H164.242V0.328767H152.18Z" fill="white"/>
<path d="M175.039 0.328767L172.167 6.00548L169.318 0.328767H164.7L170.122 9.81918V15.6712H174.235V9.77534L179.657 0.328767H175.039Z" fill="white"/>
</svg>
