<svg width="99" height="248" viewBox="0 0 99 248" fill="none" xmlns="http://www.w3.org/2000/svg">
<path opacity="0.3" fill-rule="evenodd" clip-rule="evenodd" d="M51.0047 14.0909H97.7794V0H51.0047V14.0909ZM51.0047 36.4034H97.7794V22.5455H51.0047V36.4034ZM134.084 161.38L85.0375 211.552L99.3879 226.229L134.084 190.727V161.38ZM134.084 119.897L99.6411 149.597V174.6L134.084 139.361V119.897ZM99.6411 98.7791V128.299C109.211 118.679 131.447 103.762 131.447 103.762L132.892 102.559L99.6411 98.7791ZM134.084 60.5947H14.7377V87.559L49.3737 83.6211V83.6061H64.2678V190.299L74.284 200.549L84.7471 189.84V83.6061H99.6411V83.6286L134.084 87.544V60.5947ZM49.3737 127.585V98.7716L15.5568 102.627L17.6494 103.363C17.6494 103.363 39.5884 117.958 49.3737 127.585ZM14.7377 139.624L49.3737 175.065V148.913L14.7377 119.273V139.624ZM14.7377 190.967L49.195 226.221L63.5305 211.552L14.7377 161.636V190.967ZM149 146.117L148.978 146.14V197.04H148.576L149 197.483L99.6263 248L98.9486 247.309L98.7103 247.557L74.284 222.561L49.4184 248L48.7557 247.324L48.5322 247.557L0 197.904L0.878749 197.002H0.037236V146.598L0 146.56L0.037236 146.515V104.393H0V89.2349L0.037236 89.2274V56.777V45.5644H148.978V48.8485V60.5947V89.2349V104.393V146.087L149 146.117Z" fill="#DFE1E5"/>
</svg>
