<svg width="24" height="25" viewBox="0 0 24 25" fill="none" xmlns="http://www.w3.org/2000/svg">
<path fill-rule="evenodd" clip-rule="evenodd" d="M7 3.5C4.79086 3.5 3 5.29086 3 7.5C3 9.70914 4.79086 11.5 7 11.5H17C19.2091 11.5 21 9.70914 21 7.5C21 5.29086 19.2091 3.5 17 3.5H7ZM9 7.5C9 8.60457 8.10457 9.5 7 9.5C5.89543 9.5 5 8.60457 5 7.5C5 6.39543 5.89543 5.5 7 5.5C8.10457 5.5 9 6.39543 9 7.5Z" fill="#3D50DF"/>
<path opacity="0.3" fill-rule="evenodd" clip-rule="evenodd" d="M7 13.5C4.79086 13.5 3 15.2909 3 17.5C3 19.7091 4.79086 21.5 7 21.5H17C19.2091 21.5 21 19.7091 21 17.5C21 15.2909 19.2091 13.5 17 13.5H7ZM19 17.5C19 18.6046 18.1046 19.5 17 19.5C15.8954 19.5 15 18.6046 15 17.5C15 16.3954 15.8954 15.5 17 15.5C18.1046 15.5 19 16.3954 19 17.5Z" fill="#0015FF"/>
</svg>
