<?xml version="1.0" encoding="utf-8"?>
<!-- Generator: Adobe Illustrator 22.1.0, SVG Export Plug-In . SVG Version: 6.00 Build 0)  -->
<svg version="1.1" id="Layer_1" xmlns="http://www.w3.org/2000/svg" xmlns:xlink="http://www.w3.org/1999/xlink" x="0px" y="0px"
	 viewBox="0 0 210 60" style="enable-background:new 0 0 210 60;" xml:space="preserve">
<style type="text/css">
	.st0{fill:#F2F2FA;}
	.st1{fill:#3A47DB;}
	.st2{clip-path:url(#SVGID_2_);}
</style>
<path class="st0" d="M10,0h190c5.5,0,10,4.5,10,10v40c0,5.5-4.5,10-10,10H10C4.5,60,0,55.5,0,50V10C0,4.5,4.5,0,10,0z"/>
<path class="st1" d="M72,22v-8.5h2.4c0.7,0,1.4,0.2,2,0.5c0.6,0.3,1,0.8,1.3,1.4c0.3,0.6,0.5,1.3,0.5,2.1V18c0,0.8-0.2,1.5-0.5,2.1
	c-0.3,0.6-0.8,1.1-1.3,1.4c-0.6,0.3-1.2,0.5-2,0.5H72z M73.1,14.4v6.7h1.2c0.9,0,1.5-0.3,2-0.8C76.8,19.7,77,19,77,18v-0.5
	c0-1-0.2-1.7-0.7-2.3c-0.5-0.5-1.1-0.8-1.9-0.8H73.1z M79.4,18.8c0-0.6,0.1-1.2,0.4-1.7c0.2-0.5,0.6-0.9,1-1.1
	c0.4-0.3,0.9-0.4,1.5-0.4c0.9,0,1.6,0.3,2.1,0.9c0.5,0.6,0.8,1.4,0.8,2.4v0.1c0,0.6-0.1,1.2-0.4,1.7c-0.2,0.5-0.6,0.9-1,1.1
	c-0.4,0.3-0.9,0.4-1.5,0.4c-0.9,0-1.6-0.3-2.1-0.9C79.7,20.6,79.4,19.8,79.4,18.8L79.4,18.8z M80.5,18.9c0,0.7,0.2,1.3,0.5,1.7
	c0.3,0.4,0.8,0.6,1.3,0.6c0.6,0,1-0.2,1.3-0.6c0.3-0.4,0.5-1,0.5-1.8c0-0.7-0.2-1.3-0.5-1.7c-0.3-0.4-0.8-0.7-1.3-0.7
	c-0.5,0-1,0.2-1.3,0.6C80.7,17.5,80.5,18.1,80.5,18.9z M92.2,20.5l1.2-4.8h1.1L92.6,22h-0.9l-1.5-4.8L88.7,22h-0.9L86,15.7H87
	l1.2,4.7l1.5-4.7h0.9L92.2,20.5z M96.6,15.7l0,0.8c0.5-0.6,1.1-0.9,1.9-0.9c1.3,0,2,0.8,2,2.3V22h-1.1v-4.2c0-0.5-0.1-0.8-0.3-1
	c-0.2-0.2-0.5-0.3-1-0.3c-0.4,0-0.7,0.1-0.9,0.3s-0.5,0.4-0.6,0.7V22h-1.1v-6.3H96.6z M103.4,22h-1.1v-9h1.1V22z M104.8,18.8
	c0-0.6,0.1-1.2,0.4-1.7c0.2-0.5,0.6-0.9,1-1.1c0.4-0.3,0.9-0.4,1.5-0.4c0.9,0,1.6,0.3,2.1,0.9c0.5,0.6,0.8,1.4,0.8,2.4v0.1
	c0,0.6-0.1,1.2-0.4,1.7c-0.2,0.5-0.6,0.9-1,1.1c-0.4,0.3-0.9,0.4-1.5,0.4c-0.9,0-1.6-0.3-2.1-0.9C105.1,20.6,104.8,19.8,104.8,18.8
	L104.8,18.8z M105.9,18.9c0,0.7,0.2,1.3,0.5,1.7c0.3,0.4,0.8,0.6,1.3,0.6c0.6,0,1-0.2,1.3-0.6c0.3-0.4,0.5-1,0.5-1.8
	c0-0.7-0.2-1.3-0.5-1.7c-0.3-0.4-0.8-0.7-1.3-0.7c-0.5,0-1,0.2-1.3,0.6C106.1,17.5,105.9,18.1,105.9,18.9z M115.9,22
	c-0.1-0.1-0.1-0.3-0.2-0.7c-0.5,0.5-1.1,0.8-1.8,0.8c-0.6,0-1.1-0.2-1.5-0.5c-0.4-0.4-0.6-0.8-0.6-1.3c0-0.7,0.2-1.2,0.8-1.5
	c0.5-0.4,1.2-0.6,2.1-0.6h1.1v-0.5c0-0.4-0.1-0.7-0.3-0.9c-0.2-0.2-0.6-0.3-1-0.3c-0.4,0-0.7,0.1-1,0.3c-0.3,0.2-0.4,0.4-0.4,0.7
	h-1.1c0-0.3,0.1-0.6,0.3-0.9c0.2-0.3,0.5-0.5,0.9-0.7c0.4-0.2,0.8-0.3,1.3-0.3c0.7,0,1.3,0.2,1.7,0.6c0.4,0.4,0.6,0.9,0.6,1.5v2.9
	c0,0.6,0.1,1,0.2,1.4V22H115.9z M114.1,21.2c0.3,0,0.7-0.1,1-0.3c0.3-0.2,0.5-0.4,0.7-0.7v-1.3h-0.8c-1.3,0-2,0.4-2,1.2
	c0,0.3,0.1,0.6,0.3,0.8C113.4,21.1,113.7,21.2,114.1,21.2z M118.2,18.8c0-1,0.2-1.8,0.7-2.3c0.5-0.6,1.1-0.9,1.8-0.9
	c0.7,0,1.3,0.3,1.8,0.8V13h1.1v9h-1l-0.1-0.7c-0.4,0.5-1,0.8-1.8,0.8c-0.7,0-1.3-0.3-1.8-0.9C118.4,20.6,118.2,19.8,118.2,18.8
	L118.2,18.8z M119.3,18.9c0,0.7,0.1,1.3,0.4,1.7c0.3,0.4,0.7,0.6,1.2,0.6c0.7,0,1.2-0.3,1.5-0.9v-2.9c-0.3-0.6-0.8-0.9-1.5-0.9
	c-0.5,0-0.9,0.2-1.2,0.6C119.4,17.5,119.3,18.1,119.3,18.9z M129.4,22h-1.1v-6.3h1.1V22z M128.2,14c0-0.2,0.1-0.3,0.2-0.4
	c0.1-0.1,0.3-0.2,0.5-0.2s0.4,0.1,0.5,0.2c0.1,0.1,0.2,0.3,0.2,0.4c0,0.2-0.1,0.3-0.2,0.4c-0.1,0.1-0.3,0.2-0.5,0.2
	s-0.4-0.1-0.5-0.2C128.3,14.3,128.2,14.2,128.2,14z M132.2,15.7l0,0.8c0.5-0.6,1.1-0.9,1.9-0.9c1.3,0,2,0.8,2,2.3V22H135v-4.2
	c0-0.5-0.1-0.8-0.3-1c-0.2-0.2-0.5-0.3-1-0.3c-0.4,0-0.7,0.1-0.9,0.3c-0.3,0.2-0.5,0.4-0.6,0.7V22h-1.1v-6.3H132.2z M83.5,44.2
	c-0.5,0.6-1.3,1.1-2.2,1.5c-1,0.3-2,0.5-3.2,0.5c-1.2,0-2.3-0.3-3.2-0.8c-0.9-0.5-1.6-1.3-2.1-2.3c-0.5-1-0.8-2.2-0.8-3.6v-1
	c0-1.4,0.2-2.6,0.7-3.7c0.5-1,1.2-1.8,2.1-2.4c0.9-0.6,2-0.8,3.2-0.8c1.7,0,3,0.4,4,1.2c1,0.8,1.5,2,1.7,3.5h-2.9
	c-0.1-0.8-0.4-1.4-0.9-1.8c-0.4-0.4-1.1-0.6-1.8-0.6c-1,0-1.8,0.4-2.3,1.1s-0.8,1.9-0.8,3.3v0.9c0,1.5,0.3,2.6,0.8,3.4
	s1.4,1.1,2.5,1.1c1.1,0,1.9-0.2,2.4-0.7v-2.5h-2.7v-2.2h5.6V44.2z M85.3,40.6c0-1,0.2-2,0.6-2.8c0.4-0.8,1-1.5,1.7-1.9
	c0.8-0.4,1.6-0.7,2.6-0.7c1.4,0,2.6,0.4,3.5,1.3c0.9,0.9,1.4,2.1,1.5,3.6l0,0.7c0,1.6-0.5,2.9-1.4,3.9c-0.9,1-2.1,1.5-3.6,1.5
	s-2.7-0.5-3.7-1.5c-0.9-1-1.4-2.3-1.4-4V40.6z M88.1,40.8c0,1,0.2,1.8,0.6,2.3c0.4,0.5,0.9,0.8,1.6,0.8c0.7,0,1.2-0.3,1.6-0.8
	c0.4-0.5,0.6-1.4,0.6-2.5c0-1-0.2-1.7-0.6-2.3c-0.4-0.5-0.9-0.8-1.6-0.8c-0.7,0-1.2,0.3-1.6,0.8C88.3,38.9,88.1,39.7,88.1,40.8z
	 M96.6,40.6c0-1,0.2-2,0.6-2.8c0.4-0.8,1-1.5,1.7-1.9c0.8-0.4,1.6-0.7,2.6-0.7c1.4,0,2.6,0.4,3.5,1.3c0.9,0.9,1.4,2.1,1.5,3.6l0,0.7
	c0,1.6-0.5,2.9-1.4,3.9c-0.9,1-2.1,1.5-3.6,1.5c-1.5,0-2.7-0.5-3.7-1.5c-0.9-1-1.4-2.3-1.4-4V40.6z M99.4,40.8c0,1,0.2,1.8,0.6,2.3
	c0.4,0.5,0.9,0.8,1.6,0.8c0.7,0,1.2-0.3,1.6-0.8c0.4-0.5,0.6-1.4,0.6-2.5c0-1-0.2-1.7-0.6-2.3c-0.4-0.5-0.9-0.8-1.6-0.8
	c-0.7,0-1.2,0.3-1.6,0.8C99.6,38.9,99.4,39.7,99.4,40.8z M107.9,40.6c0-1.6,0.4-2.9,1.2-3.9c0.8-1,1.8-1.5,3.1-1.5
	c1.2,0,2.1,0.4,2.7,1.2l0.1-1h2.6v10.2c0,0.9-0.2,1.7-0.6,2.4c-0.4,0.7-1,1.2-1.8,1.6c-0.8,0.4-1.7,0.5-2.7,0.5
	c-0.8,0-1.5-0.2-2.3-0.5c-0.7-0.3-1.3-0.7-1.7-1.2l1.2-1.7c0.7,0.8,1.6,1.2,2.6,1.2c0.7,0,1.3-0.2,1.7-0.6c0.4-0.4,0.6-1,0.6-1.7
	v-0.6c-0.7,0.7-1.5,1.1-2.6,1.1c-1.3,0-2.3-0.5-3.1-1.5c-0.8-1-1.2-2.3-1.2-4V40.6z M110.7,40.8c0,1,0.2,1.7,0.6,2.3
	c0.4,0.5,0.9,0.8,1.6,0.8c0.9,0,1.5-0.3,1.8-1v-4.4c-0.4-0.6-1-1-1.8-1c-0.7,0-1.2,0.3-1.6,0.8C110.9,38.9,110.7,39.7,110.7,40.8z
	 M122.7,46h-2.8V31h2.8V46z M129.9,46.2c-1.6,0-2.8-0.5-3.8-1.4c-1-1-1.5-2.2-1.5-3.8v-0.3c0-1.1,0.2-2,0.6-2.8
	c0.4-0.8,1-1.5,1.7-1.9c0.8-0.5,1.6-0.7,2.6-0.7c1.4,0,2.6,0.5,3.4,1.4c0.8,0.9,1.2,2.2,1.2,3.9v1.2h-6.7c0.1,0.7,0.4,1.2,0.8,1.7
	c0.5,0.4,1,0.6,1.7,0.6c1.1,0,1.9-0.4,2.5-1.2l1.4,1.6c-0.4,0.6-1,1.1-1.7,1.4C131.6,46,130.8,46.2,129.9,46.2z M129.6,37.5
	c-0.6,0-1,0.2-1.4,0.6c-0.3,0.4-0.6,0.9-0.7,1.6h3.9v-0.2c0-0.6-0.2-1.1-0.5-1.4C130.7,37.7,130.2,37.5,129.6,37.5z M144,41v5h-2.9
	V31.8h5.5c1.1,0,2,0.2,2.8,0.6c0.8,0.4,1.4,0.9,1.9,1.7c0.4,0.7,0.7,1.5,0.7,2.5c0,1.4-0.5,2.5-1.4,3.3c-1,0.8-2.3,1.2-4,1.2H144z
	 M144,38.6h2.6c0.8,0,1.4-0.2,1.8-0.5c0.4-0.4,0.6-0.9,0.6-1.6c0-0.7-0.2-1.3-0.6-1.7c-0.4-0.4-1-0.7-1.7-0.7H144V38.6z M156.8,46
	h-2.8V31h2.8V46z M165.2,46c-0.1-0.3-0.2-0.6-0.3-0.9c-0.7,0.8-1.6,1.1-2.7,1.1c-1,0-1.9-0.3-2.6-0.9c-0.7-0.6-1-1.4-1-2.3
	c0-1.1,0.4-2,1.2-2.6c0.8-0.6,2-0.9,3.6-0.9h1.3v-0.6c0-0.5-0.1-0.9-0.4-1.2c-0.2-0.3-0.6-0.4-1.2-0.4c-0.5,0-0.8,0.1-1.1,0.3
	c-0.3,0.2-0.4,0.5-0.4,0.9h-2.8c0-0.6,0.2-1.2,0.6-1.7c0.4-0.5,0.9-0.9,1.6-1.2c0.7-0.3,1.5-0.4,2.3-0.4c1.3,0,2.3,0.3,3.1,1
	c0.8,0.7,1.2,1.6,1.2,2.8v4.6c0,1,0.1,1.8,0.4,2.3V46H165.2z M162.9,44c0.4,0,0.8-0.1,1.2-0.3c0.4-0.2,0.6-0.4,0.8-0.8v-1.8h-1.1
	c-1.4,0-2.2,0.5-2.3,1.5l0,0.2c0,0.4,0.1,0.6,0.4,0.9C162.1,43.9,162.5,44,162.9,44z M173.6,42l2-6.6h3l-4.2,12.2l-0.2,0.6
	c-0.6,1.4-1.7,2.1-3.1,2.1c-0.4,0-0.8-0.1-1.2-0.2v-2.1l0.4,0c0.5,0,0.9-0.1,1.2-0.2c0.3-0.2,0.5-0.4,0.6-0.8l0.3-0.9l-3.7-10.6h3
	L173.6,42z"/>
<g>
	<defs>
		<rect id="SVGID_1_" x="28" y="16" width="30" height="30"/>
	</defs>
	<clipPath id="SVGID_2_">
		<use xlink:href="#SVGID_1_"  style="overflow:visible;"/>
	</clipPath>
	<g class="st2">
		<path class="st1" d="M54.9,28.1L34.4,16.4c-0.5-0.3-1.1-0.4-1.6-0.4c-0.6,0-1.2,0.2-1.7,0.4c-1,0.6-1.6,1.7-1.6,2.9v23.4
			c0,1.2,0.6,2.3,1.6,2.9c0.5,0.3,1.1,0.4,1.7,0.4c0.6,0,1.1-0.2,1.6-0.4l20.5-11.7c1-0.6,1.7-1.7,1.7-2.9
			C56.5,29.8,55.9,28.7,54.9,28.1z M46,25.4l-2.8,3.9l-6.7-9.4L46,25.4z M32.6,44c-0.2,0-0.4-0.1-0.5-0.2c-0.4-0.2-0.6-0.7-0.6-1.1
			V19.3c0-0.5,0.2-0.9,0.6-1.1c0.2-0.1,0.3-0.1,0.5-0.2L42,31L32.6,44z M36.5,42.1l6.7-9.4l2.8,3.9L36.5,42.1z M53.9,32.1l-6.1,3.5
			L44.4,31l3.3-4.6l6.1,3.5c0.4,0.2,0.7,0.7,0.7,1.1C54.5,31.5,54.3,31.9,53.9,32.1z"/>
	</g>
</g>
</svg>
