<svg width="24" height="24" viewBox="0 0 24 24" fill="none" xmlns="http://www.w3.org/2000/svg">
<path fill-rule="evenodd" clip-rule="evenodd" d="M12 22C17.5228 22 22 17.5228 22 12C22 6.47715 17.5228 2 12 2C6.47715 2 2 6.47715 2 12C2 17.5228 6.47715 22 12 22Z" fill="#3C4CDD"/>
<path fill-rule="evenodd" clip-rule="evenodd" d="M10.5909 13.209V14.868H11.8509C14.3919 14.868 16.3869 12.915 16.3869 10.395C16.3869 7.875 14.3919 5.922 11.8509 5.922C9.30994 5.922 7.33594 7.875 7.33594 10.395H9.12094C9.12094 8.799 10.2339 7.581 11.8509 7.581C13.4469 7.581 14.6019 8.799 14.6019 10.395C14.6019 11.991 13.4469 13.209 11.8509 13.209H10.5909ZM12 16C11.4477 16 11 16.4477 11 17C11 17.5523 11.4477 18 12 18C12.5523 18 13 17.5523 13 17C13 16.4477 12.5523 16 12 16Z" fill="white"/>
</svg>
