<svg width="18" height="18" viewBox="0 0 18 18" fill="none" xmlns="http://www.w3.org/2000/svg">
<path opacity="0.3" fill-rule="evenodd" clip-rule="evenodd" d="M9 17C13.4183 17 17 13.4183 17 9C17 4.58172 13.4183 1 9 1C4.58172 1 1 4.58172 1 9C1 13.4183 4.58172 17 9 17Z" stroke="#3D50DF"/>
<path fill-rule="evenodd" clip-rule="evenodd" d="M8.15777 9.83063V10.9304H8.99304C10.6775 10.9304 12 9.63573 12 7.9652C12 6.29466 10.6775 5 8.99304 5C7.30858 5 6 6.29466 6 7.9652H7.18329C7.18329 6.90719 7.92111 6.09977 8.99304 6.09977C10.051 6.09977 10.8167 6.90719 10.8167 7.9652C10.8167 9.0232 10.051 9.83063 8.99304 9.83063H8.15777ZM9.0918 11.6808C8.72568 11.6808 8.42889 11.9776 8.42889 12.3437C8.42889 12.7098 8.72568 13.0066 9.0918 13.0066C9.45791 13.0066 9.75471 12.7098 9.75471 12.3437C9.75471 11.9776 9.45791 11.6808 9.0918 11.6808Z" fill="#3D50DF"/>
</svg>
